<svg width="203" height="98" viewBox="0 0 203 98" fill="none" xmlns="http://www.w3.org/2000/svg">
<path fill-rule="evenodd" clip-rule="evenodd" d="M2.65535 75.3646C2.65535 78.0199 0.379358 79.4108 0.379358 79.4108H13.2767C12.7709 79.4108 10.3685 77.1348 10.3685 75.2381C10.3685 73.8473 10.3685 57.0301 10.3685 57.0301H20.9898C20.9898 57.0301 24.2774 57.5359 24.2774 58.9268C24.2774 60.4441 24.2774 52.2252 24.2774 52.2252H10.3685V39.0749C10.3685 39.0749 23.1394 39.0749 23.8981 39.0749C24.6568 39.0749 27.4386 40.3394 27.565 41.9832C27.6914 43.627 27.565 34.3965 27.565 34.3965H0C0 34.3965 2.5289 35.9138 2.65535 38.5691C2.78179 41.098 2.65535 72.7092 2.65535 75.3646Z" fill="#EC1D24"/>
<path fill-rule="evenodd" clip-rule="evenodd" d="M71.3147 34.3965C71.694 34.3965 74.2229 36.1667 74.0965 38.5691C74.0965 40.2129 74.0965 81.4339 74.0965 82.319C74.0965 83.3306 72.832 93.0669 67.0155 97.1131C66.8891 97.2395 73.2114 96.228 77.384 92.0553C78.0163 91.4231 81.9361 88.7677 81.9361 79.4108C81.9361 69.4217 81.8096 41.2245 81.8096 38.4427C81.8096 35.408 84.8443 34.3965 84.8443 34.3965H71.3147V34.3965Z" fill="#EC1D24"/>
<path fill-rule="evenodd" clip-rule="evenodd" d="M32.7488 38.5691C32.8753 36.1667 30.5993 34.3965 30.22 34.3965C27.9439 34.3965 43.6231 34.3965 43.6231 34.3965C43.6231 34.3965 40.8413 36.0402 40.8413 38.4427C40.8413 39.96 40.8413 62.0879 40.8413 66.0077C40.8413 69.9275 43.1173 75.3646 49.566 75.3646C54.7502 75.3646 57.0262 69.9275 57.0262 66.0077C57.0262 62.7201 56.8998 40.9716 56.8998 38.5691C57.0262 36.2931 54.7502 34.3965 54.3709 34.3965C51.9684 34.3965 67.774 34.3965 67.774 34.3965C67.774 34.3965 64.9923 35.9138 64.9923 38.1898C64.9923 39.7072 64.9923 66.2606 64.9923 66.2606C64.9923 66.2606 64.8658 71.3184 62.084 74.6059C59.808 77.1348 56.1411 80.0431 49.8189 80.1695C42.4851 80.296 39.1975 77.767 35.91 74.6059C33.634 72.3299 33.0017 67.7779 32.8753 66.0077C32.7488 62.2143 32.7488 39.96 32.7488 38.5691Z" fill="#EC1D24"/>
<path fill-rule="evenodd" clip-rule="evenodd" d="M167.539 38.5691C167.665 36.1667 165.389 34.3965 164.883 34.3965C162.481 34.3965 178.286 34.3965 178.286 34.3965C178.286 34.3965 175.505 36.0402 175.505 38.4427C175.505 39.96 175.505 62.0879 175.505 66.0077C175.505 69.9275 177.781 75.3646 184.229 75.3646C189.414 75.3646 191.69 69.9275 191.69 66.0077C191.69 62.7201 191.563 40.9716 191.563 38.5691C191.69 36.2931 189.414 34.3965 188.908 34.3965C186.632 34.3965 202.311 34.3965 202.311 34.3965C202.311 34.3965 199.529 35.9138 199.529 38.1898C199.529 39.7072 199.529 66.2606 199.529 66.2606C199.529 66.2606 199.529 71.3184 196.621 74.6059C194.345 77.1348 190.678 80.0431 184.356 80.1695C177.022 80.296 173.734 77.767 170.447 74.6059C168.171 72.3299 167.539 67.7779 167.412 66.0077C167.412 62.2143 167.539 39.96 167.539 38.5691Z" fill="#EC1D24"/>
<path fill-rule="evenodd" clip-rule="evenodd" d="M98.2466 75.2381C98.2466 77.6406 101.155 79.4108 101.281 79.4108C103.557 79.4108 87.8782 79.4108 87.8782 79.4108C87.8782 79.4108 90.66 77.767 90.66 75.3646C90.66 73.8472 90.66 39.96 90.66 38.5691C90.7864 36.2931 88.3839 34.3965 87.8782 34.3965C85.6021 34.3965 101.281 34.3965 101.281 34.3965C101.281 34.3965 98.2466 36.1667 98.2466 38.4427C98.2466 39.8336 98.2466 73.8473 98.2466 75.2381Z" fill="#EC1D24"/>
<path fill-rule="evenodd" clip-rule="evenodd" d="M114.432 39.3278C114.432 40.7187 114.432 74.1001 114.432 75.6175C114.432 78.0199 111.65 79.5373 111.65 79.5373C111.65 79.5373 127.456 79.5373 125.053 79.5373C124.927 79.5373 122.272 77.767 122.272 75.3646C122.272 73.9737 122.398 39.4543 122.398 39.4543C122.398 39.2014 127.456 39.2014 128.973 39.2014C129.985 39.2014 132.134 39.8336 132.514 42.3625C132.64 43.1212 135.295 34.3965 135.295 34.3965H104.064L101.408 43.1212C101.408 43.1212 104.569 39.2014 106.087 39.2014C108.11 39.3278 114.432 39.3278 114.432 39.3278Z" fill="#EC1D24"/>
<path fill-rule="evenodd" clip-rule="evenodd" d="M136.938 79.4096L134.535 70.8114C134.535 70.8114 138.328 75.2369 145.03 75.6163C151.732 75.9956 153.755 72.7081 154.387 72.0758C155.019 71.4436 158.56 66.8916 153.123 63.4776C147.306 59.9371 142.122 57.914 139.719 55.8909C137.443 53.8678 134.029 49.5686 135.42 43.3728C136.811 37.177 143.513 34.5217 146.295 34.0159C149.076 33.6366 156.537 33.6366 159.445 34.7746C159.698 35.1539 159.445 41.6026 159.445 41.6026C159.318 41.982 158.307 38.4415 151.479 38.315C144.524 38.1886 143.513 42.8671 143.386 43.2464C143.26 43.6258 141.363 48.4307 146.8 51.2124C152.237 53.9942 157.675 55.7645 161.594 60.6958C166.146 66.3858 162.1 73.7196 160.836 75.1105C158.939 77.2601 153.502 80.4212 147.559 80.4212C139.593 80.4212 137.064 79.5361 136.938 79.4096Z" fill="#EC1D24"/>
<path fill-rule="evenodd" clip-rule="evenodd" d="M106.72 12.3941C106.972 17.5784 103.558 25.0386 94.2015 25.1651C87.3735 25.2915 83.9595 19.9809 83.2008 19.0957C82.4422 18.2106 80.7983 14.9231 76.4992 14.7966C72.3265 14.6702 70.4299 18.5899 70.3034 20.6131C70.177 22.6362 71.0621 27.4411 76.6257 27.5675C81.6835 27.694 84.2124 22.2569 84.2124 22.2569V27.9469C84.2124 27.9469 81.557 31.108 76.7521 31.2345C71.9472 31.3609 66.2572 27.3147 66.5101 20.3602C66.763 13.4057 73.7175 10.8768 77.005 11.0033C80.2926 11.1297 83.0744 12.6471 85.4768 16.0611C87.8793 19.3486 91.1668 22.1304 95.8453 21.1189C98.6271 20.6131 102.926 18.3371 102.926 12.2677C102.926 6.19838 96.604 3.92236 94.2015 3.92236C92.5577 3.92236 90.4082 4.42812 88.0057 6.70413C85.6033 9.10658 84.4653 12.6471 84.4653 12.6471V5.06036C84.4653 5.06036 88.2586 0.00256621 93.9486 0.00256621C99.5122 -0.123879 106.467 4.42812 106.72 12.3941Z" fill="#EC1D24"/>
</svg>
