<svg width="186" height="69" viewBox="0 0 186 69" fill="none" xmlns="http://www.w3.org/2000/svg">
<path d="M177.98 37.109C177.98 36.0688 178.397 35.2366 179.021 34.6125C179.645 33.9884 180.581 33.5723 181.517 33.5723C182.557 33.5723 183.39 33.9884 184.014 34.6125C184.638 35.2366 185.054 36.1728 185.054 37.109C185.054 38.1492 184.638 38.9814 184.014 39.6055C183.39 40.2297 182.453 40.6458 181.517 40.6458C180.477 40.6458 179.645 40.2297 179.021 39.6055C178.397 38.9814 177.98 38.1492 177.98 37.109ZM178.605 37.109C178.605 37.9412 178.917 38.6693 179.437 39.1894C179.957 39.7095 180.685 40.0217 181.517 40.0217C182.349 40.0217 183.078 39.7095 183.598 39.1894C184.118 38.6693 184.43 37.9412 184.43 37.109C184.43 36.2768 184.118 35.5486 183.598 35.0285C183.078 34.5084 182.349 34.1964 181.517 34.1964C180.685 34.1964 179.957 34.5084 179.437 35.0285C179.021 35.5486 178.605 36.2768 178.605 37.109Z" fill="#004E9F"/>
<path fill-rule="evenodd" clip-rule="evenodd" d="M7.59361 12.6627C10.1942 10.3742 13.3148 8.39781 16.7475 8.39781C26.0055 8.39781 33.4951 15.6794 33.4951 24.9374C33.4951 34.1953 26.0055 41.6849 16.7475 41.6849C7.48957 41.6849 0 34.1953 0 24.9374V0.908203H7.59361V12.6627V12.6627ZM16.7475 34.4034C21.9487 34.4034 26.2135 30.1385 26.2135 24.9374C26.2135 19.7363 21.9487 15.4713 16.7475 15.4713C11.5464 15.4713 7.28155 19.7363 7.28155 24.9374C7.28155 30.1385 11.5464 34.4034 16.7475 34.4034Z" fill="#004E9F"/>
<path fill-rule="evenodd" clip-rule="evenodd" d="M46.9141 24.9371C46.9141 15.6791 54.4036 8.18945 63.6616 8.18945C72.9196 8.18945 80.4092 15.6791 80.4092 24.9371C80.4092 34.195 72.9196 41.6846 63.6616 41.6846C54.4036 41.6846 46.9141 34.195 46.9141 24.9371ZM63.6616 34.403C68.8627 34.403 73.1276 30.1382 73.1276 24.9371C73.1276 19.736 68.8627 15.471 63.6616 15.471C58.4605 15.471 54.1956 19.736 54.1956 24.9371C54.1956 30.1382 58.3565 34.403 63.6616 34.403Z" fill="#004E9F"/>
<path fill-rule="evenodd" clip-rule="evenodd" d="M33.1836 24.9371C33.1836 13.8067 39.633 8.18945 49.9312 8.18945H50.6593V15.471L49.9312 15.367C43.8979 15.367 40.8812 19.6319 40.8812 24.833V41.1645H33.1836V24.9371Z" fill="#004E9F"/>
<path fill-rule="evenodd" clip-rule="evenodd" d="M110.99 11.5185C113.278 9.7501 115.151 8.29381 118.063 8.29381C125.345 8.29381 131.17 14.7432 131.17 22.7529V41.3728H123.889V22.7529C123.889 18.8 120.976 15.5754 117.439 15.5754C113.798 15.5754 110.99 18.8 110.99 22.7529V41.3728H102.98V38.8763C100.9 40.6447 98.195 41.6849 94.8663 41.6849C86.5445 41.6849 80.1992 34.9235 80.1992 26.4977V0.908203H88.417V8.81393H100.9V15.9914H88.417V27.2258C88.417 31.2827 91.5377 34.6114 95.5945 34.6114C99.6514 34.6114 102.98 31.2827 102.98 27.2258V1.22026H110.99V11.5185Z" fill="#004E9F"/>
<path fill-rule="evenodd" clip-rule="evenodd" d="M138.557 27.8491C139.285 32.3221 143.238 35.7548 147.919 35.7548C151.872 35.7548 155.305 33.3623 156.657 29.9296H164.042C161.962 36.899 155.617 41.9961 148.023 41.9961C138.765 41.9961 131.275 34.2985 131.275 25.0405C131.275 15.7825 138.765 8.29297 148.023 8.29297C157.281 8.29297 164.771 15.7825 164.771 25.0405C164.771 25.9767 164.667 27.0169 164.562 27.9531L138.557 27.8491ZM156.865 21.3997C155.617 17.6549 152.08 14.8464 147.919 14.8464C143.758 14.8464 140.117 17.5509 138.869 21.3997H156.865Z" fill="#004E9F"/>
<path fill-rule="evenodd" clip-rule="evenodd" d="M164.459 24.9371C164.459 13.8067 170.908 8.18945 181.207 8.18945H181.935V15.471L181.207 15.367C175.173 15.367 172.157 19.6319 172.157 24.833V41.1645H164.459V24.9371Z" fill="#004E9F"/>
<path fill-rule="evenodd" clip-rule="evenodd" d="M179.959 34.9219H182.248C182.664 34.9219 183.08 35.1299 183.184 35.546C183.288 35.754 183.288 36.0661 183.184 36.3782C183.08 36.6903 182.872 36.8983 182.664 37.0023C182.768 37.1063 183.08 37.2103 183.08 37.6264C183.08 37.8345 183.08 38.3546 183.08 38.5627C183.08 38.7707 183.184 38.8747 183.288 38.8747V38.9788H182.352C182.248 38.8747 182.248 38.7707 182.248 38.5627C182.248 38.3546 182.248 38.0426 182.248 37.7305C182.248 37.4184 182.04 37.3144 181.728 37.3144H180.688V38.9788H179.855V34.9219H179.959ZM180.896 36.7943H182.04C182.248 36.7943 182.56 36.5862 182.56 36.1702C182.56 35.8581 182.456 35.65 182.04 35.65H180.896V36.7943Z" fill="#004E9F"/>
<path d="M40.8125 62.084C40.6825 61.8239 40.5768 61.3607 40.4955 60.6943C39.4472 61.7833 38.1957 62.3278 36.741 62.3278C35.4407 62.3278 34.3721 61.9621 33.535 61.2307C32.7061 60.4911 32.2916 59.5566 32.2916 58.427C32.2916 57.0535 32.8117 55.9889 33.8519 55.2331C34.9003 54.4692 36.3712 54.0873 38.2648 54.0873H40.459V53.0511C40.459 52.2628 40.2233 51.6371 39.752 51.1738C39.2806 50.7025 38.5858 50.4668 37.6674 50.4668C36.8629 50.4668 36.1884 50.67 35.6439 51.0763C35.0994 51.4827 34.8272 51.9743 34.8272 52.5513H32.5598C32.5598 51.8931 32.7914 51.2592 33.2546 50.6497C33.726 50.032 34.3599 49.5444 35.1563 49.1869C35.9608 48.8293 36.8426 48.6505 37.8015 48.6505C39.3212 48.6505 40.5118 49.0325 41.3732 49.7964C42.2347 50.5522 42.6816 51.5964 42.7141 52.9292V58.9999C42.7141 60.2108 42.8686 61.1738 43.1774 61.8889V62.084H40.8125ZM37.0701 60.3652C37.7772 60.3652 38.4476 60.1823 39.0815 59.8166C39.7154 59.4509 40.1745 58.9755 40.459 58.3904V55.6842H38.6914C35.9283 55.6842 34.5468 56.4928 34.5468 58.11C34.5468 58.817 34.7825 59.3697 35.2538 59.7679C35.7252 60.1661 36.3306 60.3652 37.0701 60.3652ZM49.309 45.7005V48.8943H51.7714V50.6375H49.309V58.817C49.309 59.3453 49.4187 59.7435 49.6381 60.0117C49.8575 60.2717 50.2314 60.4018 50.7596 60.4018C51.0197 60.4018 51.3772 60.353 51.8323 60.2555V62.084C51.2391 62.2465 50.6621 62.3278 50.1013 62.3278C49.0936 62.3278 48.3338 62.023 47.8218 61.4135C47.3098 60.804 47.0538 59.9385 47.0538 58.817V50.6375H44.6524V48.8943H47.0538V45.7005H49.309ZM64.9245 58.7805L67.9964 48.8943H70.41L65.1074 64.1197C64.2866 66.3139 62.9822 67.4111 61.1943 67.4111L60.7677 67.3745L59.9266 67.216V65.3875L60.5361 65.4363C61.3 65.4363 61.8932 65.2819 62.3158 64.973C62.7465 64.6642 63.1001 64.0994 63.3764 63.2786L63.8762 61.9377L59.1708 48.8943H61.6332L64.9245 58.7805ZM71.6412 55.3672C71.6412 54.0751 71.8932 52.913 72.397 51.8809C72.909 50.8488 73.616 50.0524 74.5181 49.4916C75.4283 48.9309 76.4645 48.6505 77.6266 48.6505C79.4226 48.6505 80.8732 49.2722 81.9784 50.5156C83.0918 51.759 83.6485 53.4128 83.6485 55.477V55.6354C83.6485 56.9194 83.4006 58.0734 82.9049 59.0974C82.4173 60.1133 81.7143 60.9056 80.796 61.4745C79.8858 62.0434 78.8375 62.3278 77.651 62.3278C75.8631 62.3278 74.4125 61.7061 73.2991 60.4627C72.1939 59.2193 71.6412 57.5736 71.6412 55.5257V55.3672ZM73.9086 55.6354C73.9086 57.0982 74.2459 58.2725 74.9204 59.1584C75.603 60.0442 76.5132 60.4871 77.651 60.4871C78.7968 60.4871 79.707 60.0401 80.3815 59.1462C81.0561 58.2441 81.3933 56.9845 81.3933 55.3672C81.3933 53.9207 81.0479 52.7504 80.3572 51.8565C79.6745 50.9544 78.7643 50.5034 77.6266 50.5034C76.5132 50.5034 75.6152 50.9463 74.9326 51.8321C74.2499 52.7179 73.9086 53.9857 73.9086 55.6354ZM94.6196 60.7796C93.7419 61.8117 92.4538 62.3278 90.7553 62.3278C89.3494 62.3278 88.2767 61.9214 87.5371 61.1088C86.8057 60.288 86.436 59.0771 86.4278 57.4761V48.8943H88.683V57.4152C88.683 59.4144 89.4957 60.4139 91.121 60.4139C92.8439 60.4139 93.9898 59.7719 94.5586 58.4879V48.8943H96.8138V62.084H94.6683L94.6196 60.7796ZM106.627 50.9179C106.286 50.861 105.916 50.8325 105.518 50.8325C104.038 50.8325 103.035 51.4623 102.507 52.722V62.084H100.251V48.8943H102.446L102.482 50.4181C103.222 49.2397 104.27 48.6505 105.627 48.6505C106.066 48.6505 106.399 48.7074 106.627 48.8212V50.9179ZM122.584 58.5854C122.584 57.9759 122.352 57.5046 121.889 57.1714C121.434 56.8301 120.633 56.5375 119.487 56.2937C118.35 56.0499 117.444 55.7573 116.769 55.416C116.103 55.0747 115.607 54.6683 115.282 54.197C114.965 53.7256 114.806 53.1649 114.806 52.5148C114.806 51.4339 115.261 50.5196 116.172 49.772C117.09 49.0243 118.26 48.6505 119.682 48.6505C121.178 48.6505 122.389 49.0365 123.315 49.8086C124.25 50.5806 124.717 51.568 124.717 52.7708H122.45C122.45 52.1531 122.185 51.6208 121.657 51.1738C121.137 50.7269 120.479 50.5034 119.682 50.5034C118.862 50.5034 118.22 50.6822 117.756 51.0398C117.293 51.3973 117.062 51.8646 117.062 52.4416C117.062 52.9861 117.277 53.3965 117.708 53.6728C118.138 53.9491 118.914 54.2132 120.036 54.4652C121.166 54.7171 122.08 55.0178 122.779 55.3672C123.478 55.7167 123.994 56.1393 124.327 56.635C124.668 57.1226 124.839 57.7199 124.839 58.427C124.839 59.6053 124.367 60.5521 123.425 61.2672C122.482 61.9743 121.259 62.3278 119.756 62.3278C118.699 62.3278 117.765 62.1409 116.952 61.767C116.139 61.3932 115.501 60.8731 115.038 60.2067C114.583 59.5322 114.355 58.8048 114.355 58.0247H116.611C116.651 58.7805 116.952 59.3818 117.513 59.8288C118.081 60.2677 118.829 60.4871 119.756 60.4871C120.609 60.4871 121.292 60.3164 121.803 59.9751C122.324 59.6256 122.584 59.1624 122.584 58.5854ZM130.227 62.084H127.972V48.8943H130.227V62.084ZM127.789 45.3957C127.789 45.03 127.899 44.7212 128.118 44.4693C128.346 44.2174 128.679 44.0914 129.118 44.0914C129.556 44.0914 129.89 44.2174 130.117 44.4693C130.345 44.7212 130.458 45.03 130.458 45.3957C130.458 45.7614 130.345 46.0662 130.117 46.31C129.89 46.5538 129.556 46.6757 129.118 46.6757C128.679 46.6757 128.346 46.5538 128.118 46.31C127.899 46.0662 127.789 45.7614 127.789 45.3957ZM133.299 55.3794C133.299 53.3559 133.778 51.7305 134.737 50.5034C135.696 49.2681 136.952 48.6505 138.504 48.6505C140.048 48.6505 141.271 49.1787 142.173 50.2352V43.36H144.428V62.084H142.356L142.246 60.6699C141.344 61.7752 140.089 62.3278 138.48 62.3278C136.952 62.3278 135.704 61.702 134.737 60.4505C133.778 59.199 133.299 57.5655 133.299 55.5501V55.3794ZM135.554 55.6354C135.554 57.1307 135.863 58.301 136.48 59.1462C137.098 59.9914 137.951 60.4139 139.04 60.4139C140.471 60.4139 141.515 59.7719 142.173 58.4879V52.4294C141.499 51.186 140.462 50.5643 139.065 50.5643C137.959 50.5643 137.098 50.991 136.48 51.8443C135.863 52.6976 135.554 53.9613 135.554 55.6354ZM153.412 62.3278C151.625 62.3278 150.17 61.7427 149.048 60.5724C147.927 59.394 147.366 57.8215 147.366 55.8548V55.4404C147.366 54.132 147.614 52.9658 148.11 51.9418C148.614 50.9097 149.312 50.1052 150.206 49.5282C151.108 48.9431 152.084 48.6505 153.132 48.6505C154.847 48.6505 156.18 49.2153 157.13 50.3449C158.081 51.4745 158.557 53.0918 158.557 55.1966V56.1352H149.621C149.654 57.4355 150.032 58.4879 150.755 59.2925C151.486 60.0889 152.413 60.4871 153.534 60.4871C154.331 60.4871 155.005 60.3245 155.558 59.9995C156.11 59.6744 156.594 59.2437 157.008 58.7073L158.386 59.7801C157.281 61.4785 155.623 62.3278 153.412 62.3278ZM153.132 50.5034C152.222 50.5034 151.458 50.8366 150.84 51.503C150.223 52.1612 149.841 53.0877 149.694 54.2823H156.301V54.1117C156.236 52.9658 155.928 52.08 155.375 51.4542C154.822 50.8203 154.075 50.5034 153.132 50.5034Z" fill="#004E9F"/>
</svg>
