<svg width="232" height="30" viewBox="0 0 232 30" fill="none" xmlns="http://www.w3.org/2000/svg">
<path fill-rule="evenodd" clip-rule="evenodd" d="M133.124 14.0968C129.011 8.86456 132.343 0.716766 139.84 0.638672H155.094L153.714 4.28305H145.645H141.376C139.319 4.30908 138.174 6.75602 139.319 8.26583C141.219 11.1293 144.447 13.1337 146.504 16.0752C150.929 21.8802 146.478 29.4293 139.892 29.4553H123.102L124.481 25.8109H133.618H137.731C139.762 25.7849 140.907 23.338 139.84 21.8802C138.174 19.1469 135.206 16.5698 133.124 14.0968Z" fill="white"/>
<path fill-rule="evenodd" clip-rule="evenodd" d="M42.8982 29.4553H34.0215L44.9026 0.638672H45.1629H53.5189H53.7792L42.8982 29.4553Z" fill="#E30100"/>
<path fill-rule="evenodd" clip-rule="evenodd" d="M117.71 29.4553H109.354L120.235 0.638672H128.591L117.71 29.4553Z" fill="white"/>
<path fill-rule="evenodd" clip-rule="evenodd" d="M158.346 29.4553H149.99L160.871 0.638672H169.227L158.346 29.4553Z" fill="white"/>
<path fill-rule="evenodd" clip-rule="evenodd" d="M170.972 9.358C173.887 3.34478 180.005 0.168957 185.68 0.351176H187.866H190.86C195.233 0.559427 197.888 4.07365 198.097 6.98915C198.149 7.692 198.149 8.34279 198.044 8.88944C197.966 9.20182 197.888 9.54022 197.81 9.87863C196.899 13.5751 195.519 17.3496 193.697 20.7337C190.782 26.7209 184.664 29.9227 178.99 29.7405H176.803H173.835C169.462 29.5322 166.807 26.018 166.599 23.1025C166.547 22.3997 166.547 21.7229 166.651 21.2022C166.729 20.8899 166.807 20.5515 166.885 20.213C167.796 16.5166 169.176 12.7421 170.972 9.358ZM186.799 3.34477C183.727 3.42287 181.124 5.16697 180.005 7.97835L174.486 22.66C174.33 22.9984 174.278 23.3889 174.278 23.7793C174.278 25.3412 175.527 26.6428 177.115 26.7469H177.922C180.994 26.6688 183.597 24.9247 184.69 22.1133L190.209 7.43169C190.365 7.09328 190.417 6.70281 190.417 6.31234C190.417 4.75046 189.168 3.4489 187.606 3.31874L186.799 3.34477Z" fill="white"/>
<path fill-rule="evenodd" clip-rule="evenodd" d="M15.6422 11.728H26.2109L30.402 0.638672H39.2786L29.0744 27.7112C29.0744 27.7112 29.0744 27.7372 29.0483 27.7372C28.6318 28.7525 27.6427 29.4553 26.4713 29.4813H19.5469L24.7532 15.7108H14.1845L8.97823 29.4813H0.101562L10.9826 0.638672H19.8333L15.6422 11.728Z" fill="#E30100"/>
<path fill-rule="evenodd" clip-rule="evenodd" d="M64.5804 11.4677L79.0277 0.638672H85.6657L70.8799 11.728L80.2512 29.4553H72.7281C72.7542 29.4553 72.7802 29.4553 72.8062 29.4553C71.6348 29.5334 70.5675 28.8826 70.099 27.9195C70.099 27.9195 70.099 27.8934 70.073 27.8934L64.1899 16.752L61.9772 18.418L57.8122 29.4813H48.9355L59.8166 0.638672H68.6933L64.5804 11.4677Z" fill="#E30100"/>
<path fill-rule="evenodd" clip-rule="evenodd" d="M98.3443 20.4485L111.933 0.638672H116.827L97.8498 28.2318C97.3552 28.9607 96.5221 29.4293 95.6111 29.4553H95.4288C95.4028 29.4553 95.3768 29.4553 95.3247 29.4553C95.3247 29.4553 95.3247 29.4553 95.3507 29.4553H95.0644H92.1489H90.7172L88.4004 0.638672H96.7564L98.3443 20.4485Z" fill="white"/>
<path fill-rule="evenodd" clip-rule="evenodd" d="M206.922 9.95787L206.896 9.59343L199.373 29.4553H195.078L206.011 0.638672H210.306H211.452L219.313 20.1101L226.706 0.638672H231.001L220.068 29.4553H216.137C215.044 29.4032 214.107 28.7264 213.717 27.7893L206.922 9.95787Z" fill="white"/>
</svg>
