<svg width="177" height="55" viewBox="0 0 177 55" fill="none" xmlns="http://www.w3.org/2000/svg">
<path fill-rule="evenodd" clip-rule="evenodd" d="M48.4599 54.2443V46.4668H51.0428V44.8779H44.1133V46.4668H46.6962V54.2443H48.4599V54.2443ZM58.8177 54.2443V52.6658H53.9467V50.1142H58.3272V48.5436H53.9467V46.4642H58.6481V44.8753H52.1856V54.2417H58.8177V54.2443ZM65.168 52.311C64.8315 52.6319 64.4297 52.791 63.9627 52.791C63.3287 52.791 62.8069 52.5406 62.4155 52.0396C62.0189 51.5361 61.8181 50.6934 61.8181 49.5115C61.8181 48.3922 62.0189 47.5861 62.4233 47.0903C62.8251 46.592 63.3495 46.3468 63.9966 46.3468C64.461 46.3468 64.8602 46.4851 65.1915 46.7668C65.5202 47.046 65.7342 47.4295 65.8333 47.9148L67.5788 47.4687C67.3805 46.7199 67.083 46.1459 66.6865 45.7389C66.0186 45.0605 65.1498 44.7214 64.0879 44.7214C62.8617 44.7214 61.8754 45.1518 61.1241 46.0154C60.3727 46.879 59.997 48.0896 59.997 49.6446C59.997 51.1213 60.37 52.2849 61.1188 53.1328C61.8676 53.9834 62.8225 54.4086 63.9783 54.4086C64.915 54.4086 65.6872 54.1608 66.2951 53.6651C66.9056 53.1667 67.3413 52.4075 67.6022 51.3848L65.8907 50.8056C65.7472 51.4865 65.5046 51.9875 65.168 52.311ZM70.8792 54.2443V50.1507H74.3361V54.2443H76.0998V44.8779H74.3361V48.5618H70.8792V44.8779H69.1155V54.2443H70.8792ZM79.5724 54.2443V48.1444L83.0867 54.2469H84.8609V44.8805H83.2224V51.1343L79.6481 44.8805H77.9365V54.2469H79.5724V54.2443ZM87.5116 53.1302C88.2735 53.9807 89.3066 54.406 90.6033 54.406C91.8895 54.406 92.9149 53.9808 93.6793 53.1276C94.4438 52.2745 94.8247 51.0926 94.8247 49.582C94.8247 48.0557 94.4386 46.8608 93.6663 46.0024C92.8914 45.1492 91.8635 44.7188 90.5798 44.7188C89.8702 44.7188 89.2414 44.844 88.6987 45.0944C88.2891 45.2797 87.9134 45.5589 87.569 45.9372C87.2272 46.3155 86.9585 46.7433 86.7654 47.2182C86.4993 47.8678 86.3663 48.6688 86.3663 49.6263C86.3663 51.1108 86.7446 52.2823 87.5116 53.1302ZM88.8422 47.1425C89.2857 46.6103 89.8728 46.3442 90.6033 46.3442C91.3286 46.3442 91.9104 46.6051 92.3513 47.1321C92.787 47.6565 93.0062 48.4601 93.0062 49.535C93.0062 50.6177 92.7792 51.4317 92.3279 51.9744C91.8791 52.5197 91.3025 52.791 90.6033 52.791C89.9015 52.791 89.3197 52.5197 88.8631 51.9692C88.4091 51.4239 88.1769 50.6177 88.1769 49.5533C88.1769 48.4783 88.3987 47.6748 88.8422 47.1425ZM102.391 54.2443V52.6658H98.0077V44.9614H96.2466V54.2469H102.391V54.2443ZM104.442 53.1302C105.209 53.9807 106.239 54.406 107.533 54.406C108.819 54.406 109.845 53.9808 110.609 53.1276C111.376 52.2745 111.757 51.0926 111.757 49.582C111.757 48.0557 111.371 46.8608 110.599 46.0024C109.824 45.1492 108.796 44.7188 107.51 44.7188C106.8 44.7188 106.174 44.844 105.631 45.0944C105.219 45.2797 104.843 45.5589 104.499 45.9372C104.155 46.3155 103.886 46.7433 103.695 47.2182C103.429 47.8678 103.294 48.6688 103.294 49.6263C103.296 51.1108 103.68 52.2823 104.442 53.1302ZM105.772 47.1425C106.216 46.6103 106.805 46.3442 107.533 46.3442C108.258 46.3442 108.843 46.6051 109.281 47.1321C109.72 47.6565 109.936 48.4601 109.936 49.535C109.936 50.6177 109.709 51.4317 109.26 51.9744C108.806 52.5197 108.235 52.791 107.536 52.791C106.834 52.791 106.252 52.5197 105.793 51.9692C105.336 51.4239 105.109 50.6177 105.109 49.5533C105.109 48.4783 105.331 47.6748 105.772 47.1425ZM119.214 50.8004V51.9875C118.948 52.2092 118.629 52.3971 118.259 52.5536C117.883 52.7102 117.515 52.7884 117.145 52.7884C116.404 52.7884 115.801 52.5119 115.339 51.9562C114.88 51.4004 114.651 50.5655 114.651 49.4541C114.651 48.4262 114.878 47.6487 115.332 47.1269C115.786 46.5999 116.393 46.3416 117.158 46.3416C117.669 46.3416 118.092 46.4746 118.431 46.7355C118.775 47.0016 119.005 47.3643 119.13 47.8209L120.873 47.4739C120.704 46.6103 120.312 45.9346 119.702 45.4493C119.089 44.9614 118.243 44.7188 117.158 44.7188C116.328 44.7188 115.632 44.8753 115.073 45.191C114.34 45.5954 113.784 46.1772 113.403 46.9338C113.023 47.693 112.829 48.5592 112.829 49.535C112.829 50.4325 113.002 51.2622 113.341 52.0266C113.685 52.791 114.191 53.3781 114.872 53.7877C115.551 54.1973 116.349 54.4034 117.265 54.4034C117.98 54.4034 118.687 54.2573 119.389 53.9677C120.088 53.6755 120.625 53.3389 120.996 52.9502V49.2219H117.194V50.8004H119.214V50.8004ZM126.67 54.2443V50.3203L129.872 44.8779H127.844L125.833 48.5879L123.78 44.8779H121.718L124.909 50.302V54.2443H126.67Z" fill="white"/>
<path fill-rule="evenodd" clip-rule="evenodd" d="M28.3227 35.562C24.8292 35.9377 24.7457 32.8591 24.7457 32.8591C24.9101 30.4875 27.3652 29.9866 27.3652 29.9866C27.7409 29.8222 36.0166 28.2411 36.0166 28.2411C33.8146 35.8125 28.3227 35.562 28.3227 35.562ZM45.5448 12.9315C45.5448 12.9315 33.6059 9.43799 23.4151 14.3482C23.4151 14.3482 19.5877 16.6336 18.3823 20.2523L29.0584 21.5021C29.0584 21.5021 30.9865 18.2982 34.313 18.3608C34.313 18.3608 38.4926 18.0269 38.6413 20.5863C38.6413 20.5863 38.7874 21.5647 38.0152 22.6866C38.0152 22.6866 29.862 23.8293 25.2858 24.1215C25.2858 24.1215 20.6678 24.265 16.7152 27.2419C16.7152 27.2419 13.7357 29.0604 13.3261 33.754C13.3261 33.754 12.9973 39.306 18.4632 40.9157C18.4632 40.9157 21.7219 42.0794 25.9876 41.0801C25.9876 41.0801 27.9496 41.1088 33.5224 37.9754L33.4937 41.0514H45.0856C45.0856 41.0514 44.7099 36.2273 45.8761 33.4827L49.8288 21.2516C49.8288 21.2516 51.7438 14.9717 45.5448 12.9315Z" fill="white"/>
<path fill-rule="evenodd" clip-rule="evenodd" d="M154.216 35.0528C150.725 35.4285 150.641 32.3473 150.641 32.3473C150.806 29.9757 153.264 29.4773 153.264 29.4773C153.637 29.3104 161.912 27.7293 161.912 27.7293C159.71 35.3007 154.216 35.0528 154.216 35.0528ZM171.438 12.4222C171.438 12.4222 159.499 8.92875 149.308 13.8363C149.308 13.8363 145.483 16.1244 144.275 19.7431L154.952 20.9928C154.952 20.9928 156.88 17.789 160.209 17.8516C160.209 17.8516 164.391 17.5202 164.534 20.0771C164.534 20.0771 164.681 21.0554 163.914 22.1773C163.914 22.1773 155.758 23.3201 151.184 23.6123C151.184 23.6123 146.564 23.7558 142.614 26.7327C142.614 26.7327 139.631 28.5511 139.224 33.2422C139.224 33.2422 138.898 38.7967 144.359 40.4065C144.359 40.4065 147.618 41.5701 151.881 40.5735C151.881 40.5735 153.843 40.5996 159.416 37.4661L159.389 40.5448H170.981C170.981 40.5448 170.606 35.7207 171.772 32.976L175.725 20.745C175.722 20.7424 177.637 14.4599 171.438 12.4222Z" fill="white"/>
<path fill-rule="evenodd" clip-rule="evenodd" d="M67.6211 41.0511H79.2677L84.8015 25.1622C84.8015 25.1622 86.299 21.2096 89.2107 19.7538C89.2107 19.7538 92.9964 18.4206 93.2886 21.6244C93.2886 21.6244 93.7034 23.5786 91.7075 28.8201L87.6714 41.0485L98.9867 40.8424L106.099 20.4164C106.099 20.4164 108.384 12.3468 99.5659 11.9737C99.5659 11.9737 92.0389 11.1831 87.7131 16.049L92.8294 1.61328H81.0158L67.6211 41.0511Z" fill="white"/>
<path fill-rule="evenodd" clip-rule="evenodd" d="M111.729 12.1816H123.337L117.639 28.6967C117.639 28.6967 116.225 32.3989 119.387 33.2312C119.387 33.2312 121.962 33.7295 124.834 29.6125C124.834 29.6125 126.248 28.0079 127.957 22.7142L131.994 12.1816H143.596L133.614 40.4686H122.546L123.919 36.5994C123.919 36.5994 119.217 41.0947 112.856 41.053C112.856 41.053 109.569 41.5096 106.989 39.7198C106.989 39.7198 103.287 37.5569 105.199 31.9814L111.729 12.1816Z" fill="white"/>
<path fill-rule="evenodd" clip-rule="evenodd" d="M41.5502 45.8389L41.5241 48.5419L38.3046 49.8777C38.3046 49.8777 33.1231 52.7058 26.3684 53.3972C26.3684 53.3972 18.6587 54.4721 13.7094 52.6484C-4.11275 47.6626 -1.3785 26.5296 8.72882 14.9247C23.0862 -1.56165 55.104 -7.4502 60.4812 17.959L65.6914 1.6083H77.0145L68.2665 27.1819C65.2949 37.6205 61.9084 42.2202 48.0623 41.2992C58.4149 37.6962 64.7339 14.0977 48.4615 6.25756C48.4615 6.25756 35.1242 -0.1867 19.3658 11.3973C9.5611 18.6191 0.348664 34.7715 12.4232 46.2146C21.4556 52.5832 32.4056 51.1717 41.5502 45.8389Z" fill="#ED1C24"/>
</svg>
