<svg width="182" height="64" viewBox="0 0 182 64" fill="none" xmlns="http://www.w3.org/2000/svg">
<path d="M0 51.3574H8.21726V53.0908H1.99012V56.108H7.76789V57.713H1.99012V61.0512H8.34567V62.7846H0V51.3574Z" fill="#084DA5"/>
<path d="M9.95185 51.3574H12.3272L14.8951 55.4019L17.5913 51.3574H19.8382L16.0506 56.8784L20.095 62.7846H17.6555L14.8309 58.4191L11.942 62.7846H9.63086L13.6753 56.8784L9.95185 51.3574Z" fill="#084DA5"/>
<path d="M29.2734 55.0179C28.9524 53.6697 28.1179 52.771 26.4487 52.771C24.0092 52.771 22.982 54.9537 22.982 57.1364C22.982 59.3191 24.0092 61.5018 26.4487 61.5018C28.2462 61.5018 29.2092 60.1536 29.3376 58.4845H31.2635C31.1351 61.245 29.145 63.1067 26.3845 63.1067C22.9821 63.1067 20.9277 60.4104 20.9277 57.1364C20.9277 53.8623 22.9821 51.166 26.3845 51.166C28.9524 51.166 31.0067 52.5783 31.2635 55.082H29.2734V55.0179Z" fill="#084DA5"/>
<path d="M34.1523 51.3574H42.3696V53.0908H36.1424V56.108H41.9202V57.713H36.1424V61.0512H42.498V62.7846H34.1523V51.3574Z" fill="#084DA5"/>
<path d="M45.5156 51.3574H53.7329V53.0908H47.5057V56.108H53.2835V57.713H47.5057V61.0512H53.8613V62.7846H45.5156V51.3574Z" fill="#084DA5"/>
<path d="M56.9434 51.3574H61.694C65.2248 51.3574 66.7656 53.9253 66.7656 57.071C66.7656 60.2167 65.2248 62.7846 61.694 62.7846H56.9434V51.3574ZM58.9335 61.1796H60.9236C64.0693 61.1796 64.7112 59.3821 64.7112 57.071C64.7112 54.7599 64.0051 52.9624 60.9236 52.9624H58.9335V61.1796Z" fill="#084DA5"/>
<path d="M76.8462 58.3552L72.5449 51.4219H74.856L77.8733 56.5577L80.8264 51.4219H83.0733L78.7721 58.3552V62.8491H76.782V58.3552H76.8462Z" fill="#084DA5"/>
<path d="M94.564 57.072C94.564 60.346 92.5096 63.0423 89.1072 63.0423C85.7047 63.0423 83.6504 60.346 83.6504 57.072C83.6504 53.7979 85.7047 51.1016 89.1072 51.1016C92.5096 51.1016 94.564 53.8621 94.564 57.072ZM85.5763 57.072C85.5763 59.2547 86.6035 61.4374 89.043 61.4374C91.4825 61.4374 92.5096 59.2547 92.5096 57.072C92.5096 54.8892 91.4825 52.7065 89.043 52.7065C86.6035 52.7065 85.5763 54.8892 85.5763 57.072Z" fill="#084DA5"/>
<path d="M96.9375 51.3574H98.9276V58.034C98.9276 59.5747 98.9918 61.3722 101.624 61.3722C104.192 61.3722 104.32 59.5747 104.32 58.034V51.3574H106.31V58.6759C106.31 61.629 104.449 63.0414 101.624 63.0414C98.7992 63.0414 96.9375 61.5648 96.9375 58.6759V51.3574V51.3574Z" fill="#084DA5"/>
<path d="M109.455 51.3574H114.912C117.416 51.3574 118.7 52.513 118.7 54.4389C118.7 56.6216 117.159 57.1994 116.838 57.3278V57.392C117.544 57.4562 118.507 58.034 118.507 59.8315C118.507 61.1796 118.699 62.3994 119.149 62.8488H117.03C116.709 62.3352 116.709 61.6932 116.709 61.1796C116.709 59.0611 116.26 58.1623 114.462 58.1623H111.509V62.8488H109.455V51.3574ZM111.445 56.5574H114.719C116.003 56.5574 116.645 55.9154 116.645 54.7599C116.645 53.2833 115.682 53.0265 114.655 53.0265H111.381V56.5574H111.445Z" fill="#084DA5"/>
<path d="M125.891 51.3574H128.009L130.898 60.4092L133.851 51.3574H135.905L131.989 62.7846H129.742L125.891 51.3574Z" fill="#084DA5"/>
<path d="M137.961 51.3574H138.924H139.951V62.7846H137.961V51.3574Z" fill="#084DA5"/>
<path d="M144.445 58.9979C144.445 60.7312 145.729 61.4374 147.334 61.4374C149.067 61.4374 149.773 60.6028 149.773 59.704C149.773 58.8053 149.26 58.4843 148.81 58.2917C147.976 57.9707 146.949 57.7781 145.408 57.3287C143.482 56.8151 142.904 55.5954 142.904 54.4398C142.904 52.1287 145.023 51.1016 147.077 51.1016C149.452 51.1016 151.442 52.3855 151.442 54.7608H149.452C149.324 53.2843 148.361 52.7065 146.949 52.7065C146.05 52.7065 144.83 53.0275 144.83 54.1831C144.83 55.0176 145.344 55.4028 146.178 55.6596C146.371 55.7238 148.875 56.3658 149.452 56.5583C150.929 57.0077 151.699 58.2917 151.699 59.5115C151.699 62.0793 149.452 63.1065 147.141 63.1065C144.509 63.1065 142.391 61.8226 142.391 58.9979H144.445V58.9979Z" fill="#084DA5"/>
<path d="M154.523 51.3574H155.486H156.514V62.7846H154.523V51.3574Z" fill="#084DA5"/>
<path d="M170.06 57.072C170.06 60.346 168.006 63.0423 164.603 63.0423C161.201 63.0423 159.146 60.346 159.146 57.072C159.146 53.7979 161.201 51.1016 164.603 51.1016C168.006 51.1016 170.06 53.8621 170.06 57.072ZM161.137 57.072C161.137 59.2547 162.164 61.4374 164.603 61.4374C167.043 61.4374 168.07 59.2547 168.07 57.072C168.07 54.8892 167.043 52.7065 164.603 52.7065C162.164 52.7065 161.137 54.8892 161.137 57.072Z" fill="#084DA5"/>
<path d="M172.691 51.3574H174.81L180.01 59.7673V51.3574H181.936V62.7846H179.817L174.617 54.3747H174.553V62.7846H172.627V51.3574H172.691Z" fill="#084DA5"/>
<path d="M125.956 0.193359C113.63 0.193359 106.504 9.43779 106.504 22.0847C106.504 34.7316 113.63 43.976 125.956 43.976C138.282 43.976 145.408 34.7316 145.408 22.0847C145.408 9.43779 138.282 0.193359 125.956 0.193359ZM125.956 36.6575C118.124 36.6575 115.106 29.4674 115.106 22.1489C115.106 14.8304 118.124 7.64027 125.956 7.64027C133.788 7.64027 136.805 14.8304 136.805 22.1489C136.805 29.4674 133.788 36.6575 125.956 36.6575Z" fill="#084DA5"/>
<path d="M0 1.41406H30.879V8.79677H8.60245V17.977H29.4024V25.1671H8.60245V35.4387H30.879V42.8214H0V1.41406Z" fill="#084DA5"/>
<path d="M34.6016 42.82H43.204V30.4299H50.9719C61.5003 30.4299 68.562 25.2299 68.562 15.9854C68.562 6.67681 61.5003 1.54102 50.9719 1.54102H34.6016V42.82ZM50.9719 23.0472H43.204V8.85952H50.9719C56.3645 8.85952 59.9596 11.2348 59.9596 15.9854C59.9596 20.7361 56.3645 23.0472 50.9719 23.0472Z" fill="#084DA5"/>
<path d="M157.476 1.41406H148.617V42.7572H157.027V26.0017C157.027 21.4437 156.834 17.335 156.706 13.74C157.669 15.7943 160.686 22.0214 162.099 24.3967L173.076 42.7572H182V1.41406H173.59V17.7202C173.59 22.2782 173.783 26.772 173.911 30.3671C172.948 28.3128 169.931 22.0856 168.518 19.7103L157.476 1.41406Z" fill="#084DA5"/>
<path d="M78.3207 29.1464C78.3207 34.7316 82.9429 36.8501 87.8861 36.8501C91.0959 36.8501 96.2959 35.8871 96.2959 31.6501C96.2959 27.1563 89.9404 26.3217 83.7774 24.6526C77.3577 22.9193 71.1305 20.544 71.1305 12.8403C71.1305 4.302 79.2194 0.193359 86.7305 0.193359C95.4614 0.193359 103.486 3.98101 103.486 13.6748H94.8836C94.5626 8.66742 90.7108 7.38348 86.3453 7.38348C83.3923 7.38348 79.733 8.60323 79.733 12.1341C79.733 15.344 81.8515 15.8575 92.3157 18.5538C95.333 19.3242 104.898 21.1859 104.898 30.623C104.898 38.2625 98.8638 44.0402 87.5009 44.0402C78.2565 44.0402 69.5898 39.4822 69.7182 29.2106H78.3207V29.1464Z" fill="#084DA5"/>
</svg>
