<svg width="209" height="44" viewBox="0 0 209 44" fill="none" xmlns="http://www.w3.org/2000/svg">
<path d="M83.1008 10.7081H78.5254V32.5522H83.1008V23.6965H93.1373V32.5522H97.5651V10.7081H93.1373V19.5638H83.1008V10.7081ZM118.228 23.2537C118.228 26.796 116.457 28.7147 113.21 28.7147C109.963 28.7147 108.192 26.796 108.192 23.1061V10.7081H103.764V23.2537C103.764 29.4527 107.159 32.9949 113.21 32.9949C119.262 32.9949 122.656 29.4527 122.656 23.1061V10.7081H118.228V23.2537ZM161.031 10.7081L156.013 25.7628L151.142 10.7081H146.419L154.094 32.5522H157.784L162.802 18.2355L167.673 32.5522H171.51L179.037 10.7081H174.462L169.591 25.7628L164.573 10.7081H161.031ZM195.125 19.121H187.008V14.6932H198.815V10.7081H182.58V32.5522H199.258V28.5671H187.008V23.1061H195.125V19.121ZM204.571 10.7081H208.999V32.5522H204.571V10.7081ZM141.401 27.9767L143.319 32.5522H148.043L138.449 10.7081L138.301 10.5605H134.464L124.87 32.5522H129.446L131.364 28.2719L131.512 27.9767H141.401ZM136.383 16.1691L139.482 23.5489L139.63 23.9917H132.84L132.988 23.5489L136.383 16.1691Z" fill="white"/>
<path d="M25.1225 34.1862C25.1225 34.1862 25.2701 34.0386 25.1225 34.0386C18.3332 19.2791 9.03471 7.91432 9.03471 7.91432C9.03471 7.91432 4.01649 12.6373 4.31168 17.508C4.45927 21.1978 7.26357 23.2642 7.26357 23.2642C11.6914 27.5444 22.3182 33.0054 24.8273 34.1862H25.1225ZM23.3514 37.876C23.3514 37.7284 23.0562 37.7284 23.0562 37.7284L5.34484 38.3188C7.26357 41.7135 10.5107 44.3702 13.9053 43.6322C16.2669 43.0419 21.5803 39.352 23.2038 38.1712C23.499 37.876 23.3514 37.876 23.3514 37.876V37.876ZM23.6466 36.2525C23.7942 36.1049 23.6466 35.9573 23.6466 35.9573C15.8241 30.6439 0.769406 22.6738 0.769406 22.6738C-0.558947 26.954 1.21219 30.3487 1.21219 30.3487C3.13092 34.4814 6.82079 35.6621 6.82079 35.6621C8.44433 36.4001 10.2155 36.4001 10.2155 36.4001H23.499C23.6466 36.4001 23.6466 36.2525 23.6466 36.2525ZM24.8273 0.239392C24.0894 0.239392 22.023 0.82977 22.023 0.82977C17.3 2.01053 16.2669 6.29077 16.2669 6.29077C15.3813 8.94748 16.2669 11.8994 16.2669 11.8994C17.8904 18.8363 25.5653 30.3487 27.1889 32.7102L27.3365 32.8578C27.4841 32.8578 27.4841 32.7102 27.4841 32.7102C30.1408 6.88115 24.8273 0.239392 24.8273 0.239392V0.239392ZM30.7311 32.7102C30.8787 32.7102 31.0263 32.5626 31.0263 32.5626C32.7975 30.0535 40.3248 18.6887 41.9483 11.7518C41.9483 11.7518 42.8339 8.3571 41.9483 6.14318C41.9483 6.14318 40.7676 1.86293 36.0445 0.682176C36.0445 0.682176 34.7162 0.386986 33.2402 0.0917969C33.2402 0.0917969 27.9268 6.88115 30.5835 32.415C30.5835 32.7102 30.7311 32.7102 30.7311 32.7102V32.7102ZM34.8638 37.7284C34.8638 37.7284 34.7162 37.7284 34.7162 37.876V38.1712C36.4873 39.352 41.5056 43.0419 44.0147 43.6322C44.0147 43.6322 48.5901 45.2558 52.5752 38.3188L34.8638 37.7284ZM57.4458 22.5262C57.4458 22.5262 42.3911 30.6439 34.5686 35.9573C34.5686 35.9573 34.421 36.1049 34.421 36.2525C34.421 36.2525 34.421 36.4001 34.5686 36.4001H48.1473C48.1473 36.4001 49.4757 36.4001 51.2468 35.6621C51.2468 35.6621 54.9367 34.4814 57.003 30.2011C57.003 30.0535 58.7741 26.6588 57.4458 22.5262V22.5262ZM33.0927 34.1862C33.0927 34.1862 33.2402 34.3338 33.3878 34.1862C35.897 32.8578 46.5238 27.5444 50.9516 23.2642C50.9516 23.2642 53.7559 21.0502 53.9035 17.508C54.1987 12.4898 49.1805 7.91432 49.1805 7.91432C49.1805 7.91432 39.882 18.9839 33.0927 33.891C33.0927 33.891 32.9451 34.0386 33.0927 34.1862Z" fill="#FE0000"/>
</svg>
