<svg width="184" height="39" viewBox="0 0 184 39" fill="none" xmlns="http://www.w3.org/2000/svg">
<path d="M77.4387 8.5918C74.1959 8.5918 70.3046 10.2132 68.0346 13.1317V8.91607H60.252V37.7769H68.0346V21.5629C68.0346 18.6444 70.3046 15.4016 74.5202 15.4016C77.763 15.4016 81.0058 17.6716 81.0058 21.5629V37.7769H88.7885V19.9416C89.1128 13.456 84.2486 8.5918 77.4387 8.5918Z" fill="#E7000A"/>
<path d="M145.077 8.95117L137.942 28.4079L130.808 8.95117H121.729L133.403 37.812H142.158L153.832 8.95117H145.077Z" fill="#E7000A"/>
<path d="M36.447 17.5935C37.7442 15.6478 40.0141 14.675 42.6083 14.675C45.5269 14.675 47.4725 16.2964 48.7696 18.5664L34.8257 24.4034C34.5014 21.4849 35.4742 19.2149 36.447 17.5935ZM51.6881 28.9433C48.4454 31.5375 46.4997 31.8618 43.5812 31.8618C40.9869 31.8618 38.717 30.889 37.0956 29.5918L57.2009 21.1606C56.8766 17.9178 55.5795 15.3236 53.6338 13.0536C51.0396 10.1351 47.1482 8.18945 42.2841 8.18945C33.5285 8.18945 27.043 14.675 27.043 23.1063C27.043 31.8618 33.5285 38.0231 43.2569 38.0231C48.4454 38.0231 53.9581 35.4289 56.5523 32.5104L51.6881 28.9433Z" fill="#E7000A"/>
<path d="M26.5341 30.404H8.69876V0.246094H0.591797V37.5381H26.5341V30.404Z" fill="#E7000A"/>
<path d="M168.434 15.2278C163.895 15.2278 160.976 18.4706 160.976 23.3348C160.976 27.8747 164.219 31.4417 168.759 31.4417C173.299 31.4417 176.217 27.8747 176.217 23.3348C176.217 18.7949 172.65 15.2278 168.434 15.2278ZM168.434 38.2516C159.679 38.2516 153.193 31.766 153.193 23.3348C153.193 14.9035 160.003 8.41797 168.759 8.41797C177.514 8.41797 184 14.9035 184 23.3348C184 31.766 177.19 38.2516 168.434 38.2516Z" fill="#E7000A"/>
<path d="M107.61 15.2278C103.07 15.2278 100.152 18.4706 100.152 23.3348C100.152 27.8747 103.395 31.4417 107.935 31.4417C112.474 31.4417 115.393 27.8747 115.393 23.3348C115.393 18.7949 111.826 15.2278 107.61 15.2278ZM107.61 38.2516C98.8547 38.2516 92.3691 31.766 92.3691 23.3348C92.3691 14.9035 99.179 8.41797 107.935 8.41797C116.69 8.41797 123.176 14.9035 123.176 23.3348C123.176 31.766 116.366 38.2516 107.61 38.2516Z" fill="#E7000A"/>
</svg>
