<svg width="31" height="37" viewBox="0 0 31 37" fill="none" xmlns="http://www.w3.org/2000/svg">
<path d="M9.47898 0.86031L11.1724 3.79287C8.11596 5.2798 6.05078 8.21235 6.05078 11.5992H15.8397H25.6287C25.6287 8.25366 23.5635 5.3211 20.507 3.79287L22.2005 0.86031C22.2005 0.86031 22.2831 0.695096 22.1179 0.612489C21.9527 0.529882 21.8701 0.653792 21.8701 0.653792L20.1766 3.58635C18.8962 3.0081 17.4093 2.67767 15.881 2.67767C14.3528 2.67767 12.8659 3.0081 11.5855 3.58635L9.89202 0.653792C9.89202 0.653792 9.80941 0.488578 9.64419 0.612489C9.39637 0.695096 9.47898 0.86031 9.47898 0.86031ZM11.1311 6.4776C11.6268 6.4776 12.0811 6.89064 12.0811 7.42758C12.0811 7.92323 11.6681 8.33626 11.1311 8.33626C10.6355 8.33626 10.1811 7.92323 10.1811 7.42758C10.2224 6.89064 10.6355 6.4776 11.1311 6.4776ZM20.4244 6.4776C20.9201 6.4776 21.3744 6.89064 21.3744 7.42758C21.3744 7.92323 20.9614 8.33626 20.4244 8.33626C19.9288 8.33626 19.4745 7.92323 19.4745 7.42758C19.5158 6.89064 19.9288 6.4776 20.4244 6.4776Z" fill="#A4C639"/>
<path d="M5.92773 12.6719V27.4999C5.92773 28.2433 6.83641 29.1933 7.53857 29.1933H9.85158V34.2324C9.85158 35.5128 10.8016 36.5454 11.9581 36.5454C13.1146 36.5454 14.0645 35.5128 14.0645 34.2324V29.1933H17.4514V34.2324C17.4514 35.5128 18.4014 36.5454 19.5579 36.5454C20.7144 36.5454 21.6644 35.5128 21.6644 34.2324V29.1933H23.9774C24.7209 29.1933 25.5882 28.2433 25.5882 27.4999V12.6719H5.92773Z" fill="#A4C639"/>
<path d="M2.70609 12.3828C3.86259 12.3828 4.81258 13.4154 4.81258 14.6958V23.4935C4.81258 24.7739 3.86259 25.8065 2.70609 25.8065C1.54959 25.8065 0.599609 24.7739 0.599609 23.4935V14.6958C0.599609 13.4154 1.54959 12.3828 2.70609 12.3828Z" fill="#A4C639"/>
<path d="M28.8936 12.3828C30.0501 12.3828 31.0001 13.4154 31.0001 14.6958V23.4935C31.0001 24.7739 30.0501 25.8065 28.8936 25.8065C27.7371 25.8065 26.7871 24.7739 26.7871 23.4935V14.6958C26.7871 13.4154 27.7371 12.3828 28.8936 12.3828Z" fill="#A4C639"/>
</svg>
