<svg width="186" height="68" viewBox="0 0 186 68" fill="none" xmlns="http://www.w3.org/2000/svg">
<path d="M177.981 36.7203C177.981 35.6801 178.397 34.8479 179.021 34.2238C179.645 33.5997 180.582 33.1836 181.518 33.1836C182.558 33.1836 183.39 33.5997 184.014 34.2238C184.638 34.8479 185.055 35.7841 185.055 36.7203C185.055 37.7605 184.638 38.5927 184.014 39.2169C183.39 39.841 182.454 40.2571 181.518 40.2571C180.478 40.2571 179.645 39.841 179.021 39.2169C178.397 38.5927 177.981 37.7605 177.981 36.7203ZM178.605 36.7203C178.605 37.5525 178.917 38.2806 179.437 38.8008C179.957 39.3209 180.686 39.633 181.518 39.633C182.35 39.633 183.078 39.3209 183.598 38.8008C184.118 38.2806 184.43 37.5525 184.43 36.7203C184.43 35.8881 184.118 35.16 183.598 34.6399C183.078 34.1198 182.35 33.8077 181.518 33.8077C180.686 33.8077 179.957 34.1198 179.437 34.6399C179.021 35.16 178.605 35.8881 178.605 36.7203Z" fill="white"/>
<path fill-rule="evenodd" clip-rule="evenodd" d="M7.59361 12.274C10.1942 9.98553 13.3148 8.00914 16.7475 8.00914C26.0055 8.00914 33.4951 15.2907 33.4951 24.5487C33.4951 33.8067 26.0055 41.2962 16.7475 41.2962C7.48957 41.2962 0 33.8067 0 24.5487V0.519531H7.59361V12.274V12.274ZM16.7475 34.0147C21.9487 34.0147 26.2135 29.7498 26.2135 24.5487C26.2135 19.3476 21.9487 15.0826 16.7475 15.0826C11.5464 15.0826 7.28155 19.3476 7.28155 24.5487C7.28155 29.7498 11.5464 34.0147 16.7475 34.0147Z" fill="white"/>
<path fill-rule="evenodd" clip-rule="evenodd" d="M46.9136 24.5494C46.9136 15.2914 54.4031 7.80176 63.6611 7.80176C72.9191 7.80176 80.4087 15.2914 80.4087 24.5494C80.4087 33.8073 72.9191 41.2969 63.6611 41.2969C54.4031 41.2969 46.9136 33.8073 46.9136 24.5494ZM63.6611 34.0154C68.8622 34.0154 73.1271 29.7505 73.1271 24.5494C73.1271 19.3483 68.8622 15.0833 63.6611 15.0833C58.46 15.0833 54.1951 19.3483 54.1951 24.5494C54.1951 29.7505 58.356 34.0154 63.6611 34.0154Z" fill="white"/>
<path fill-rule="evenodd" clip-rule="evenodd" d="M33.1826 24.5494C33.1826 13.419 39.632 7.80176 49.9302 7.80176H50.6583V15.0833L49.9302 14.9793C43.8969 14.9793 40.8802 19.2442 40.8802 24.4453V40.7768H33.1826V24.5494Z" fill="white"/>
<path fill-rule="evenodd" clip-rule="evenodd" d="M110.991 11.1298C113.279 9.36143 115.152 7.90514 118.064 7.90514C125.346 7.90514 131.171 14.3545 131.171 22.3642V40.9842H123.89V22.3642C123.89 18.4113 120.977 15.1867 117.44 15.1867C113.799 15.1867 110.991 18.4113 110.991 22.3642V40.9842H102.981V38.4876C100.901 40.256 98.196 41.2962 94.8673 41.2962C86.5455 41.2962 80.2002 34.5348 80.2002 26.109V0.519531H88.418V8.42525H100.901V15.6027H88.418V26.8371C88.418 30.894 91.5387 34.2227 95.5955 34.2227C99.6524 34.2227 102.981 30.894 102.981 26.8371V0.831585H110.991V11.1298Z" fill="white"/>
<path fill-rule="evenodd" clip-rule="evenodd" d="M138.557 27.4604C139.285 31.9334 143.238 35.3661 147.919 35.3661C151.872 35.3661 155.305 32.9736 156.657 29.5409H164.042C161.962 36.5104 155.617 41.6074 148.023 41.6074C138.765 41.6074 131.275 33.9098 131.275 24.6518C131.275 15.3939 138.765 7.9043 148.023 7.9043C157.281 7.9043 164.771 15.3939 164.771 24.6518C164.771 25.588 164.667 26.6282 164.562 27.5644L138.557 27.4604ZM156.865 21.0111C155.617 17.2663 152.08 14.4577 147.919 14.4577C143.758 14.4577 140.117 17.1622 138.869 21.0111H156.865Z" fill="white"/>
<path fill-rule="evenodd" clip-rule="evenodd" d="M164.458 24.5494C164.458 13.419 170.908 7.80176 181.206 7.80176H181.934V15.0833L181.206 14.9793C175.173 14.9793 172.156 19.2442 172.156 24.4453V40.7768H164.458V24.5494Z" fill="white"/>
<path fill-rule="evenodd" clip-rule="evenodd" d="M179.958 34.5332H182.247C182.663 34.5332 183.079 34.7412 183.183 35.1573C183.287 35.3654 183.287 35.6775 183.183 35.9895C183.079 36.3016 182.871 36.5096 182.663 36.6136C182.767 36.7177 183.079 36.8217 183.079 37.2378C183.079 37.4458 183.079 37.9659 183.079 38.174C183.079 38.382 183.183 38.486 183.287 38.486V38.5901H182.351C182.247 38.4861 182.247 38.382 182.247 38.174C182.247 37.9659 182.247 37.6539 182.247 37.3418C182.247 37.0297 182.039 36.9257 181.727 36.9257H180.687V38.5901H179.854V34.5332H179.958ZM180.895 36.4056H182.039C182.247 36.4056 182.559 36.1976 182.559 35.7815C182.559 35.4694 182.455 35.2614 182.039 35.2614H180.895V36.4056Z" fill="white"/>
<path d="M40.8115 61.6953C40.6815 61.4353 40.5758 60.972 40.4946 60.3056C39.4462 61.3946 38.1947 61.9391 36.74 61.9391C35.4397 61.9391 34.3711 61.5734 33.534 60.842C32.7051 60.1025 32.2906 59.1679 32.2906 58.0383C32.2906 56.6649 32.8107 55.6003 33.851 54.8445C34.8993 54.0806 36.3703 53.6986 38.2638 53.6986H40.458V52.6625C40.458 51.8742 40.2223 51.2484 39.751 50.7852C39.2796 50.3138 38.5848 50.0782 37.6665 50.0782C36.8619 50.0782 36.1874 50.2813 35.6429 50.6877C35.0984 51.094 34.8262 51.5857 34.8262 52.1627H32.5588C32.5588 51.5044 32.7904 50.8705 33.2537 50.261C33.725 49.6434 34.3589 49.1558 35.1553 48.7982C35.9599 48.4406 36.8416 48.2618 37.8006 48.2618C39.3203 48.2618 40.5108 48.6438 41.3723 49.4077C42.2337 50.1635 42.6807 51.2078 42.7132 52.5405V58.6112C42.7132 59.8221 42.8676 60.7851 43.1764 61.5003V61.6953H40.8115ZM37.0692 59.9765C37.7762 59.9765 38.4466 59.7937 39.0805 59.428C39.7144 59.0623 40.1736 58.5868 40.458 58.0017V55.2955H38.6904C35.9273 55.2955 34.5458 56.1041 34.5458 57.7213C34.5458 58.4284 34.7815 58.981 35.2528 59.3792C35.7242 59.7774 36.3296 59.9765 37.0692 59.9765ZM49.308 45.3118V48.5056H51.7704V50.2488H49.308V58.4284C49.308 58.9566 49.4177 59.3548 49.6371 59.623C49.8566 59.8831 50.2304 60.0131 50.7586 60.0131C51.0187 60.0131 51.3763 59.9643 51.8314 59.8668V61.6953C51.2381 61.8578 50.6611 61.9391 50.1004 61.9391C49.0927 61.9391 48.3328 61.6344 47.8208 61.0249C47.3088 60.4154 47.0528 59.5499 47.0528 58.4284V50.2488H44.6514V48.5056H47.0528V45.3118H49.308ZM64.9235 58.3918L67.9954 48.5056H70.4091L65.1064 63.7311C64.2856 65.9253 62.9812 67.0224 61.1934 67.0224L60.7667 66.9858L59.9256 66.8273V64.9988L60.5351 65.0476C61.299 65.0476 61.8923 64.8932 62.3148 64.5844C62.7456 64.2755 63.0991 63.7107 63.3754 62.8899L63.8752 61.549L59.1698 48.5056H61.6322L64.9235 58.3918ZM71.6403 54.9786C71.6403 53.6864 71.8922 52.5243 72.3961 51.4922C72.908 50.4601 73.6151 49.6637 74.5171 49.1029C75.4273 48.5422 76.4635 48.2618 77.6256 48.2618C79.4216 48.2618 80.8722 48.8835 81.9775 50.1269C83.0908 51.3703 83.6475 53.0241 83.6475 55.0883V55.2468C83.6475 56.5308 83.3996 57.6848 82.9039 58.7087C82.4163 59.7246 81.7134 60.5169 80.795 61.0858C79.8848 61.6547 78.8365 61.9391 77.65 61.9391C75.8621 61.9391 74.4115 61.3174 73.2981 60.074C72.1929 58.8306 71.6403 57.185 71.6403 55.137V54.9786ZM73.9076 55.2468C73.9076 56.7096 74.2449 57.8839 74.9194 58.7697C75.602 59.6555 76.5122 60.0984 77.65 60.0984C78.7959 60.0984 79.706 59.6514 80.3806 58.7575C81.0551 57.8554 81.3923 56.5958 81.3923 54.9786C81.3923 53.532 81.047 52.3618 80.3562 51.4678C79.6735 50.5658 78.7633 50.1147 77.6256 50.1147C76.5122 50.1147 75.6142 50.5576 74.9316 51.4434C74.2489 52.3293 73.9076 53.597 73.9076 55.2468ZM94.6186 60.391C93.7409 61.4231 92.4528 61.9391 90.7543 61.9391C89.3484 61.9391 88.2757 61.5328 87.5362 60.7201C86.8047 59.8993 86.435 58.6884 86.4269 57.0875V48.5056H88.682V57.0265C88.682 59.0257 89.4947 60.0253 91.12 60.0253C92.8429 60.0253 93.9888 59.3833 94.5576 58.0992V48.5056H96.8128V61.6953H94.6674L94.6186 60.391ZM106.626 50.5292C106.285 50.4723 105.915 50.4439 105.517 50.4439C104.037 50.4439 103.034 51.0737 102.506 52.3333V61.6953H100.25V48.5056H102.445L102.481 50.0294C103.221 48.851 104.269 48.2618 105.626 48.2618C106.065 48.2618 106.398 48.3187 106.626 48.4325V50.5292ZM122.583 58.1968C122.583 57.5872 122.351 57.1159 121.888 56.7827C121.433 56.4414 120.632 56.1488 119.486 55.905C118.349 55.6612 117.443 55.3687 116.768 55.0273C116.102 54.686 115.606 54.2797 115.281 53.8083C114.964 53.337 114.805 52.7762 114.805 52.1261C114.805 51.0452 115.261 50.131 116.171 49.3833C117.089 48.6357 118.259 48.2618 119.681 48.2618C121.177 48.2618 122.388 48.6478 123.314 49.4199C124.249 50.1919 124.716 51.1793 124.716 52.3821H122.449C122.449 51.7644 122.184 51.2321 121.656 50.7852C121.136 50.3382 120.478 50.1147 119.681 50.1147C118.861 50.1147 118.219 50.2935 117.755 50.6511C117.292 51.0087 117.061 51.4759 117.061 52.0529C117.061 52.5974 117.276 53.0078 117.707 53.2841C118.137 53.5605 118.913 53.8246 120.035 54.0765C121.165 54.3284 122.079 54.6291 122.778 54.9786C123.477 55.328 123.993 55.7506 124.326 56.2463C124.667 56.7339 124.838 57.3313 124.838 58.0383C124.838 59.2167 124.367 60.1634 123.424 60.8786C122.481 61.5856 121.258 61.9391 119.755 61.9391C118.698 61.9391 117.764 61.7522 116.951 61.3784C116.138 61.0045 115.5 60.4844 115.037 59.818C114.582 59.1435 114.354 58.4162 114.354 57.636H116.61C116.65 58.3918 116.951 58.9932 117.512 59.4401C118.08 59.879 118.828 60.0984 119.755 60.0984C120.608 60.0984 121.291 59.9277 121.803 59.5864C122.323 59.237 122.583 58.7738 122.583 58.1968ZM130.226 61.6953H127.971V48.5056H130.226V61.6953ZM127.788 45.0071C127.788 44.6414 127.898 44.3326 128.117 44.0806C128.345 43.8287 128.678 43.7027 129.117 43.7027C129.555 43.7027 129.889 43.8287 130.116 44.0806C130.344 44.3326 130.457 44.6414 130.457 45.0071C130.457 45.3728 130.344 45.6775 130.116 45.9213C129.889 46.1651 129.555 46.287 129.117 46.287C128.678 46.287 128.345 46.1651 128.117 45.9213C127.898 45.6775 127.788 45.3728 127.788 45.0071ZM133.298 54.9908C133.298 52.9672 133.777 51.3419 134.736 50.1147C135.695 48.8795 136.951 48.2618 138.503 48.2618C140.047 48.2618 141.27 48.7901 142.172 49.8465V42.9713H144.427V61.6953H142.355L142.245 60.2813C141.343 61.3865 140.088 61.9391 138.479 61.9391C136.951 61.9391 135.703 61.3134 134.736 60.0618C133.777 58.8103 133.298 57.1768 133.298 55.1614V54.9908ZM135.553 55.2468C135.553 56.7421 135.862 57.9123 136.479 58.7575C137.097 59.6027 137.95 60.0253 139.039 60.0253C140.47 60.0253 141.514 59.3833 142.172 58.0992V52.0408C141.498 50.7974 140.461 50.1757 139.064 50.1757C137.958 50.1757 137.097 50.6023 136.479 51.4556C135.862 52.3089 135.553 53.5726 135.553 55.2468ZM153.411 61.9391C151.624 61.9391 150.169 61.354 149.047 60.1837C147.926 59.0054 147.365 57.4328 147.365 55.4662V55.0517C147.365 53.7433 147.613 52.5771 148.109 51.5532C148.613 50.5211 149.312 49.7165 150.205 49.1395C151.108 48.5544 152.083 48.2618 153.131 48.2618C154.846 48.2618 156.179 48.8266 157.129 49.9562C158.08 51.0859 158.556 52.7031 158.556 54.8079V55.7465H149.62C149.653 57.0468 150.031 58.0992 150.754 58.9038C151.485 59.7002 152.412 60.0984 153.533 60.0984C154.33 60.0984 155.004 59.9359 155.557 59.6108C156.11 59.2857 156.593 58.855 157.008 58.3187L158.385 59.3914C157.28 61.0899 155.622 61.9391 153.411 61.9391ZM153.131 50.1147C152.221 50.1147 151.457 50.4479 150.839 51.1143C150.222 51.7726 149.84 52.699 149.693 53.8937H156.3V53.723C156.235 52.5771 155.927 51.6913 155.374 51.0655C154.821 50.4317 154.074 50.1147 153.131 50.1147Z" fill="white"/>
</svg>
