<svg width="176" height="55" viewBox="0 0 176 55" fill="none" xmlns="http://www.w3.org/2000/svg">
<path fill-rule="evenodd" clip-rule="evenodd" d="M48.4594 53.8566V46.0791H51.0423V44.4902H44.1128V46.0791H46.6957V53.8566H48.4594V53.8566ZM58.8172 53.8566V52.2781H53.9462V49.7265H58.3267V48.1559H53.9462V46.0765H58.6476V44.4876H52.1851V53.854H58.8172V53.8566ZM65.1675 51.9233C64.831 52.2442 64.4292 52.4033 63.9622 52.4033C63.3282 52.4033 62.8064 52.1529 62.415 51.6519C62.0185 51.1484 61.8176 50.3057 61.8176 49.1238C61.8176 48.0045 62.0185 47.1984 62.4229 46.7026C62.8246 46.2043 63.3491 45.9591 63.9961 45.9591C64.4605 45.9591 64.8597 46.0974 65.191 46.3791C65.5198 46.6583 65.7337 47.0418 65.8328 47.5271L67.5783 47.081C67.38 46.3322 67.0826 45.7582 66.686 45.3512C66.0181 44.6728 65.1493 44.3337 64.0874 44.3337C62.8612 44.3337 61.875 44.7642 61.1236 45.6277C60.3722 46.4913 59.9965 47.7019 59.9965 49.2569C59.9965 50.7336 60.3696 51.8972 61.1183 52.7451C61.8671 53.5957 62.822 54.0209 63.9778 54.0209C64.9145 54.0209 65.6867 53.7731 66.2946 53.2774C66.9051 52.779 67.3408 52.0198 67.6017 50.9971L65.8902 50.4179C65.7467 51.0988 65.5041 51.5998 65.1675 51.9233ZM70.8787 53.8566V49.763H74.3356V53.8566H76.0993V44.4902H74.3356V48.1741H70.8787V44.4902H69.115V53.8566H70.8787ZM79.5719 53.8566V47.7567L83.0862 53.8592H84.8604V44.4928H83.2219V50.7466L79.6476 44.4928H77.9361V53.8592H79.5719V53.8566ZM87.5111 52.7425C88.273 53.5931 89.3061 54.0183 90.6028 54.0183C91.8891 54.0183 92.9144 53.5931 93.6788 52.7399C94.4433 51.8868 94.8242 50.7049 94.8242 49.1943C94.8242 47.668 94.4381 46.4731 93.6658 45.6147C92.8909 44.7615 91.863 44.3311 90.5793 44.3311C89.8697 44.3311 89.2409 44.4563 88.6982 44.7068C88.2886 44.892 87.9129 45.1712 87.5685 45.5495C87.2268 45.9278 86.958 46.3557 86.765 46.8305C86.4988 47.4801 86.3658 48.2811 86.3658 49.2386C86.3658 50.7231 86.7441 51.8946 87.5111 52.7425ZM88.8417 46.7548C89.2853 46.2226 89.8723 45.9565 90.6028 45.9565C91.3281 45.9565 91.9099 46.2174 92.3509 46.7444C92.7866 47.2688 93.0057 48.0724 93.0057 49.1473C93.0057 50.23 92.7787 51.044 92.3274 51.5867C91.8786 52.132 91.302 52.4033 90.6028 52.4033C89.901 52.4033 89.3192 52.132 88.8626 51.5815C88.4086 51.0362 88.1764 50.23 88.1764 49.1656C88.1764 48.0906 88.3982 47.2871 88.8417 46.7548ZM102.39 53.8566V52.2781H98.0072V44.5737H96.2461V53.8592H102.39V53.8566ZM104.441 52.7425C105.208 53.5931 106.239 54.0183 107.533 54.0183C108.819 54.0183 109.844 53.5931 110.609 52.7399C111.376 51.8868 111.757 50.7049 111.757 49.1943C111.757 47.668 111.371 46.4731 110.598 45.6147C109.823 44.7615 108.795 44.3311 107.509 44.3311C106.8 44.3311 106.173 44.4563 105.631 44.7068C105.219 44.892 104.843 45.1712 104.498 45.5495C104.154 45.9278 103.885 46.3557 103.695 46.8305C103.429 47.4801 103.293 48.2811 103.293 49.2386C103.296 50.7231 103.679 51.8946 104.441 52.7425ZM105.772 46.7548C106.215 46.2226 106.805 45.9565 107.533 45.9565C108.258 45.9565 108.842 46.2174 109.281 46.7444C109.719 47.2688 109.936 48.0724 109.936 49.1473C109.936 50.23 109.709 51.044 109.26 51.5867C108.806 52.132 108.235 52.4033 107.535 52.4033C106.833 52.4033 106.252 52.132 105.792 51.5815C105.336 51.0362 105.109 50.23 105.109 49.1656C105.109 48.0906 105.331 47.2871 105.772 46.7548ZM119.213 50.4127V51.5998C118.947 51.8215 118.629 52.0094 118.258 52.1659C117.883 52.3225 117.515 52.4007 117.144 52.4007C116.403 52.4007 115.801 52.1242 115.339 51.5685C114.88 51.0127 114.65 50.1779 114.65 49.0664C114.65 48.0385 114.877 47.261 115.331 46.7392C115.785 46.2122 116.393 45.9539 117.157 45.9539C117.669 45.9539 118.091 46.0869 118.431 46.3478C118.775 46.6139 119.005 46.9766 119.13 47.4332L120.873 47.0862C120.703 46.2226 120.312 45.5469 119.701 45.0616C119.088 44.5737 118.243 44.3311 117.157 44.3311C116.328 44.3311 115.631 44.4876 115.073 44.8033C114.34 45.2077 113.784 45.7895 113.403 46.5461C113.022 47.3053 112.829 48.1715 112.829 49.1473C112.829 50.0448 113.001 50.8745 113.34 51.6389C113.685 52.4033 114.191 52.9904 114.872 53.4C115.55 53.8096 116.349 54.0157 117.264 54.0157C117.979 54.0157 118.686 53.8696 119.388 53.58C120.087 53.2878 120.625 52.9512 120.995 52.5625V48.8342H117.194V50.4127H119.213V50.4127ZM126.67 53.8566V49.9326L129.871 44.4902H127.844L125.832 48.2002L123.779 44.4902H121.718L124.909 49.9143V53.8566H126.67Z" fill="white"/>
<path fill-rule="evenodd" clip-rule="evenodd" d="M28.3212 35.1734C24.8277 35.5491 24.7442 32.4704 24.7442 32.4704C24.9086 30.0988 27.3637 29.5979 27.3637 29.5979C27.7394 29.4335 36.0152 27.8525 36.0152 27.8525C33.8132 35.4238 28.3212 35.1734 28.3212 35.1734ZM45.5433 12.5428C45.5433 12.5428 33.6045 9.04931 23.4136 13.9595C23.4136 13.9595 19.5862 16.245 18.3809 19.8637L29.0569 21.1134C29.0569 21.1134 30.985 17.9095 34.3115 17.9721C34.3115 17.9721 38.4911 17.6382 38.6399 20.1976C38.6399 20.1976 38.786 21.176 38.0137 22.2979C38.0137 22.2979 29.8605 23.4406 25.2843 23.7328C25.2843 23.7328 20.6664 23.8763 16.7137 26.8532C16.7137 26.8532 13.7342 28.6717 13.3246 33.3653C13.3246 33.3653 12.9959 38.9173 18.4617 40.5271C18.4617 40.5271 21.7204 41.6907 25.9861 40.6914C25.9861 40.6914 27.9481 40.7201 33.521 37.5867L33.4923 40.6627H45.0841C45.0841 40.6627 44.7084 35.8387 45.8746 33.094L49.8273 20.8629C49.8273 20.8629 51.7423 14.583 45.5433 12.5428Z" fill="white"/>
<path fill-rule="evenodd" clip-rule="evenodd" d="M154.214 34.6641C150.723 35.0398 150.64 31.9586 150.64 31.9586C150.804 29.587 153.262 29.0887 153.262 29.0887C153.635 28.9217 161.911 27.3406 161.911 27.3406C159.709 34.912 154.214 34.6641 154.214 34.6641ZM171.436 12.0335C171.436 12.0335 159.498 8.54008 149.307 13.4476C149.307 13.4476 145.482 15.7357 144.274 19.3544L154.95 20.6042C154.95 20.6042 156.878 17.4003 160.207 17.4629C160.207 17.4629 164.39 17.1316 164.533 19.6884C164.533 19.6884 164.679 20.6668 163.912 21.7887C163.912 21.7887 155.756 22.9314 151.183 23.2236C151.183 23.2236 146.562 23.3671 142.612 26.344C142.612 26.344 139.63 28.1625 139.223 32.8535C139.223 32.8535 138.897 38.4081 144.357 40.0178C144.357 40.0178 147.616 41.1815 151.879 40.1848C151.879 40.1848 153.841 40.2109 159.414 37.0775L159.388 40.1561H170.98C170.98 40.1561 170.604 35.332 171.77 32.5874L175.723 20.3563C175.72 20.3537 177.635 14.0712 171.436 12.0335Z" fill="white"/>
<path fill-rule="evenodd" clip-rule="evenodd" d="M67.6206 40.6634H79.2672L84.801 24.7745C84.801 24.7745 86.2985 20.8219 89.2102 19.3661C89.2102 19.3661 92.9959 18.0329 93.2881 21.2367C93.2881 21.2367 93.7029 23.1909 91.707 28.4324L87.6709 40.6608L98.9862 40.4547L106.098 20.0288C106.098 20.0288 108.384 11.9591 99.5654 11.586C99.5654 11.586 92.0384 10.7955 87.7126 15.6613L92.8289 1.22559H81.0153L67.6206 40.6634Z" fill="white"/>
<path fill-rule="evenodd" clip-rule="evenodd" d="M111.728 11.793H123.335L117.637 28.308C117.637 28.308 116.223 32.0102 119.385 32.8425C119.385 32.8425 121.96 33.3408 124.833 29.2238C124.833 29.2238 126.247 27.6192 127.956 22.3256L131.992 11.793H143.594L133.612 40.0799H122.545L123.917 36.2107C123.917 36.2107 119.216 40.7061 112.855 40.6643C112.855 40.6643 109.568 41.1209 106.987 39.3311C106.987 39.3311 103.285 37.1682 105.197 31.5928L111.728 11.793Z" fill="white"/>
<path fill-rule="evenodd" clip-rule="evenodd" d="M41.5492 45.4502L41.5231 48.1532L38.3036 49.489C38.3036 49.489 33.1221 52.3172 26.3674 53.0086C26.3674 53.0086 18.6577 54.0835 13.7084 52.2598C-4.11373 47.2739 -1.37948 26.1409 8.72784 14.536C23.0852 -1.95032 55.1031 -7.83887 60.4802 17.5703L65.6904 1.21963H77.0136L68.2655 26.7932C65.2939 37.2318 61.9074 41.8315 48.0613 40.9106C58.4139 37.3075 64.7329 13.709 48.4605 5.86889C48.4605 5.86889 35.1232 -0.575372 19.3648 11.0087C9.56012 18.2304 0.347687 34.3828 12.4222 45.8259C21.4546 52.1945 32.4046 50.7831 41.5492 45.4502Z" fill="white"/>
</svg>
