<svg width="182" height="64" viewBox="0 0 182 64" fill="none" xmlns="http://www.w3.org/2000/svg">
<path d="M0 51.9688H8.21727V53.7021H1.99013V56.7194H7.7679V58.3243H1.99013V61.6626H8.34568V63.3959H0V51.9688Z" fill="white"/>
<path d="M9.95087 51.9688H12.3262L14.8941 56.0132L17.5904 51.9688H19.8373L16.0496 57.4897L20.0941 63.3959H17.6546L14.8299 59.0305L11.941 63.3959H9.62988L13.6743 57.4897L9.95087 51.9688Z" fill="white"/>
<path d="M29.2739 55.6292C28.9529 54.281 28.1183 53.3823 26.4492 53.3823C24.0097 53.3823 22.9825 55.565 22.9825 57.7477C22.9825 59.9304 24.0097 62.1131 26.4492 62.1131C28.2467 62.1131 29.2097 60.765 29.3381 59.0958H31.264C31.1356 61.8563 29.1455 63.7181 26.385 63.7181C22.9825 63.7181 20.9282 61.0218 20.9282 57.7477C20.9282 54.4736 22.9825 51.7773 26.385 51.7773C28.9529 51.7773 31.0072 53.1897 31.264 55.6934H29.2739V55.6292Z" fill="white"/>
<path d="M34.1528 51.9688H42.3701V53.7021H36.1429V56.7194H41.9207V58.3243H36.1429V61.6626H42.4985V63.3959H34.1528V51.9688Z" fill="white"/>
<path d="M45.5156 51.9688H53.7329V53.7021H47.5058V56.7194H53.2835V58.3243H47.5058V61.6626H53.8613V63.3959H45.5156V51.9688Z" fill="white"/>
<path d="M56.9429 51.9688H61.6935C65.2243 51.9688 66.7651 54.5367 66.7651 57.6823C66.7651 60.828 65.2243 63.3959 61.6935 63.3959H56.9429V51.9688ZM58.933 61.791H60.9231C64.0688 61.791 64.7108 59.9935 64.7108 57.6823C64.7108 55.3712 64.0046 53.5737 60.9231 53.5737H58.933V61.791Z" fill="white"/>
<path d="M76.8452 58.9675L72.5439 52.0342H74.8551L77.8723 57.17L80.8254 52.0342H83.0723L78.7711 58.9675V63.4614H76.781V58.9675H76.8452Z" fill="white"/>
<path d="M94.5635 57.6833C94.5635 60.9574 92.5092 63.6536 89.1067 63.6536C85.7042 63.6536 83.6499 60.9574 83.6499 57.6833C83.6499 54.4092 85.7042 51.7129 89.1067 51.7129C92.5092 51.7129 94.5635 54.4734 94.5635 57.6833ZM85.5758 57.6833C85.5758 59.866 86.603 62.0487 89.0425 62.0487C91.482 62.0487 92.5092 59.866 92.5092 57.6833C92.5092 55.5006 91.482 53.3178 89.0425 53.3178C86.603 53.3178 85.5758 55.5006 85.5758 57.6833Z" fill="white"/>
<path d="M96.938 51.9688H98.9281V58.6453C98.9281 60.186 98.9923 61.9835 101.624 61.9835C104.192 61.9835 104.321 60.186 104.321 58.6453V51.9688H106.311V59.2873C106.311 62.2404 104.449 63.6527 101.624 63.6527C98.7997 63.6527 96.938 62.1762 96.938 59.2873V51.9688V51.9688Z" fill="white"/>
<path d="M109.456 51.9688H114.913C117.417 51.9688 118.701 53.1243 118.701 55.0502C118.701 57.2329 117.16 57.8107 116.839 57.9391V58.0033C117.545 58.0675 118.508 58.6453 118.508 60.4428C118.508 61.791 118.7 63.0107 119.15 63.4601H117.031C116.71 62.9465 116.71 62.3045 116.71 61.791C116.71 59.6724 116.261 58.7737 114.463 58.7737H111.51V63.4601H109.456V51.9688ZM111.446 57.1687H114.72C116.004 57.1687 116.646 56.5268 116.646 55.3712C116.646 53.8947 115.683 53.6379 114.656 53.6379H111.382V57.1687H111.446Z" fill="white"/>
<path d="M125.891 51.9688H128.01L130.899 61.0206L133.852 51.9688H135.906L131.99 63.3959H129.743L125.891 51.9688Z" fill="white"/>
<path d="M137.96 51.9688H138.923H139.951V63.3959H137.96V51.9688Z" fill="white"/>
<path d="M144.444 59.6092C144.444 61.3425 145.728 62.0487 147.333 62.0487C149.067 62.0487 149.773 61.2141 149.773 60.3154C149.773 59.4166 149.259 59.0956 148.81 58.903C147.975 58.582 146.948 58.3894 145.407 57.9401C143.482 57.4265 142.904 56.2067 142.904 55.0512C142.904 52.7401 145.022 51.7129 147.077 51.7129C149.452 51.7129 151.442 52.9968 151.442 55.3722H149.452C149.323 53.8956 148.361 53.3178 146.948 53.3178C146.049 53.3178 144.83 53.6388 144.83 54.7944C144.83 55.629 145.343 56.0141 146.178 56.2709C146.37 56.3351 148.874 56.9771 149.452 57.1697C150.928 57.6191 151.699 58.903 151.699 60.1228C151.699 62.6907 149.452 63.7178 147.141 63.7178C144.509 63.7178 142.39 62.4339 142.39 59.6092H144.444V59.6092Z" fill="white"/>
<path d="M154.523 51.9688H155.486H156.513V63.3959H154.523V51.9688Z" fill="white"/>
<path d="M170.06 57.6833C170.06 60.9574 168.005 63.6536 164.603 63.6536C161.2 63.6536 159.146 60.9574 159.146 57.6833C159.146 54.4092 161.2 51.7129 164.603 51.7129C168.005 51.7129 170.06 54.4734 170.06 57.6833ZM161.136 57.6833C161.136 59.866 162.163 62.0487 164.603 62.0487C167.042 62.0487 168.069 59.866 168.069 57.6833C168.069 55.5006 167.042 53.3178 164.603 53.3178C162.163 53.3178 161.136 55.5006 161.136 57.6833Z" fill="white"/>
<path d="M172.691 51.9688H174.81L180.01 60.3786V51.9688H181.936V63.3959H179.817L174.617 54.986H174.553V63.3959H172.627V51.9688H172.691Z" fill="white"/>
<path d="M125.957 0.803711C113.631 0.803711 106.505 10.0482 106.505 22.6951C106.505 35.342 113.631 44.5864 125.957 44.5864C138.283 44.5864 145.409 35.342 145.409 22.6951C145.409 10.0482 138.283 0.803711 125.957 0.803711ZM125.957 37.2679C118.125 37.2679 115.107 30.0778 115.107 22.7593C115.107 15.4408 118.125 8.25063 125.957 8.25063C133.789 8.25063 136.806 15.4408 136.806 22.7593C136.806 30.0778 133.789 37.2679 125.957 37.2679Z" fill="white"/>
<path d="M0.000488281 2.02441H30.8795V9.40713H8.60295V18.5874H29.4029V25.7775H8.60295V36.0491H30.8795V43.4318H0.000488281V2.02441Z" fill="white"/>
<path d="M34.603 43.4314H43.2055V31.0412H50.9734C61.5018 31.0412 68.5635 25.8412 68.5635 16.5968C68.5635 7.28814 61.5018 2.15234 50.9734 2.15234H34.603V43.4314ZM50.9734 23.6585H43.2055V9.47086H50.9734C56.366 9.47086 59.961 11.8462 59.961 16.5968C59.961 21.3474 56.366 23.6585 50.9734 23.6585Z" fill="white"/>
<path d="M157.476 2.02441H148.617V43.3676H157.027V26.6121C157.027 22.054 156.834 17.9454 156.706 14.3503C157.669 16.4046 160.686 22.6318 162.099 25.0071L173.076 43.3676H182V2.02441H173.59V18.3306C173.59 22.8886 173.783 27.3824 173.911 30.9775C172.948 28.9232 169.931 22.696 168.518 20.3207L157.476 2.02441Z" fill="white"/>
<path d="M78.3216 29.7568C78.3216 35.342 82.9439 37.4605 87.8871 37.4605C91.0969 37.4605 96.2969 36.4975 96.2969 32.2605C96.2969 27.7667 89.9414 26.9321 83.7784 25.263C77.3587 23.5296 71.1315 21.1543 71.1315 13.4506C71.1315 4.91236 79.2204 0.803711 86.7315 0.803711C95.4624 0.803711 103.487 4.59136 103.487 14.2852H94.8846C94.5636 9.27778 90.7118 7.99384 86.3463 7.99384C83.3932 7.99384 79.734 9.21359 79.734 12.7444C79.734 15.9543 81.8525 16.4679 92.3167 19.1642C95.334 19.9346 104.899 21.7963 104.899 31.2333C104.899 38.8728 98.8648 44.6506 87.5019 44.6506C78.2574 44.6506 69.5908 40.0926 69.7192 29.821H78.3216V29.7568Z" fill="white"/>
</svg>
