<svg width="182" height="88" viewBox="0 0 182 88" fill="none" xmlns="http://www.w3.org/2000/svg">
<path fill-rule="evenodd" clip-rule="evenodd" d="M2.38469 68.2443C2.38469 70.629 0.34069 71.8782 0.34069 71.8782H11.9234C11.4692 71.8782 9.31163 69.8342 9.31163 68.1308C9.31163 66.8817 9.31163 51.7787 9.31163 51.7787H18.8503C18.8503 51.7787 21.8028 52.2329 21.8028 53.4821C21.8028 54.8447 21.8028 47.4636 21.8028 47.4636H9.31163V35.6537C9.31163 35.6537 20.7808 35.6537 21.4622 35.6537C22.1435 35.6537 24.6417 36.7893 24.7553 38.2655C24.8688 39.7418 24.7553 31.4521 24.7553 31.4521H0C0 31.4521 2.27113 32.8148 2.38469 35.1995C2.49825 37.4706 2.38469 65.8597 2.38469 68.2443Z" fill="white"/>
<path fill-rule="evenodd" clip-rule="evenodd" d="M64.0452 31.4521C64.3859 31.4521 66.657 33.0419 66.5435 35.1995C66.5435 36.6757 66.5435 73.695 66.5435 74.4899C66.5435 75.3984 65.4079 84.1422 60.1843 87.776C60.0707 87.8896 65.7486 86.9811 69.4959 83.2338C70.0637 82.666 73.584 80.2813 73.584 71.8782C73.584 62.9072 73.4704 37.5842 73.4704 35.0859C73.4704 32.3606 76.1957 31.4521 76.1957 31.4521H64.0452V31.4521Z" fill="white"/>
<path fill-rule="evenodd" clip-rule="evenodd" d="M29.4104 35.1995C29.524 33.0419 27.48 31.4521 27.1393 31.4521C25.0953 31.4521 39.1763 31.4521 39.1763 31.4521C39.1763 31.4521 36.678 32.9284 36.678 35.0859C36.678 36.4486 36.678 56.321 36.678 59.8412C36.678 63.3615 38.722 68.2443 44.5134 68.2443C49.1692 68.2443 51.2132 63.3615 51.2132 59.8412C51.2132 56.8888 51.0997 37.3571 51.0997 35.1995C51.2132 33.1555 49.1692 31.4521 48.8285 31.4521C46.671 31.4521 60.8655 31.4521 60.8655 31.4521C60.8655 31.4521 58.3673 32.8148 58.3673 34.8588C58.3673 36.2215 58.3673 60.0683 58.3673 60.0683C58.3673 60.0683 58.2537 64.6106 55.7555 67.563C53.7115 69.8342 50.4184 72.446 44.7405 72.5595C38.1543 72.6731 35.2018 70.4019 32.2494 67.563C30.2053 65.519 29.6375 61.431 29.524 59.8412C29.4104 56.4345 29.4104 36.4486 29.4104 35.1995Z" fill="white"/>
<path fill-rule="evenodd" clip-rule="evenodd" d="M150.462 35.1995C150.575 33.0419 148.531 31.4521 148.077 31.4521C145.92 31.4521 160.114 31.4521 160.114 31.4521C160.114 31.4521 157.616 32.9284 157.616 35.0859C157.616 36.4486 157.616 56.321 157.616 59.8412C157.616 63.3615 159.66 68.2443 165.451 68.2443C170.107 68.2443 172.151 63.3615 172.151 59.8412C172.151 56.8888 172.038 37.3571 172.038 35.1995C172.151 33.1555 170.107 31.4521 169.653 31.4521C167.609 31.4521 181.69 31.4521 181.69 31.4521C181.69 31.4521 179.192 32.8148 179.192 34.8588C179.192 36.2215 179.192 60.0683 179.192 60.0683C179.192 60.0683 179.192 64.6106 176.58 67.563C174.536 69.8342 171.243 72.446 165.565 72.5595C158.979 72.6731 156.026 70.4019 153.074 67.563C151.03 65.519 150.462 61.431 150.348 59.8412C150.348 56.4345 150.462 36.4486 150.462 35.1995Z" fill="white"/>
<path fill-rule="evenodd" clip-rule="evenodd" d="M88.2317 68.1308C88.2317 70.2884 90.8435 71.8782 90.9571 71.8782C93.0011 71.8782 78.9201 71.8782 78.9201 71.8782C78.9201 71.8782 81.4183 70.4019 81.4183 68.2443C81.4183 66.8817 81.4183 36.4486 81.4183 35.1995C81.5319 33.1555 79.3743 31.4521 78.9201 31.4521C76.8761 31.4521 90.9571 31.4521 90.9571 31.4521C90.9571 31.4521 88.2317 33.0419 88.2317 35.0859C88.2317 36.335 88.2317 66.8817 88.2317 68.1308Z" fill="white"/>
<path fill-rule="evenodd" clip-rule="evenodd" d="M102.768 35.8808C102.768 37.13 102.768 67.1088 102.768 68.4715C102.768 70.629 100.269 71.9918 100.269 71.9918C100.269 71.9918 114.464 71.9918 112.306 71.9918C112.193 71.9918 109.808 70.4019 109.808 68.2443C109.808 66.9952 109.922 35.9944 109.922 35.9944C109.922 35.7673 114.464 35.7673 115.827 35.7673C116.735 35.7673 118.665 36.3351 119.006 38.6062C119.12 39.2875 121.504 31.4521 121.504 31.4521H93.456L91.0713 39.2875C91.0713 39.2875 93.9102 35.7673 95.2729 35.7673C97.0898 35.8808 102.768 35.8808 102.768 35.8808Z" fill="white"/>
<path fill-rule="evenodd" clip-rule="evenodd" d="M122.979 71.8767L120.822 64.1549C120.822 64.1549 124.228 68.1293 130.247 68.47C136.265 68.8107 138.082 65.8582 138.65 65.2904C139.218 64.7227 142.397 60.6346 137.515 57.5686C132.291 54.3891 127.635 52.5722 125.478 50.7553C123.434 48.9383 120.368 45.0774 121.617 39.5132C122.866 33.9489 128.884 31.5642 131.382 31.11C133.881 30.7693 140.581 30.7693 143.192 31.7913C143.419 32.132 143.192 37.9234 143.192 37.9234C143.079 38.264 142.17 35.0845 136.038 34.9709C129.793 34.8573 128.884 39.059 128.771 39.3996C128.657 39.7403 126.954 44.0554 131.837 46.5537C136.72 49.0519 141.603 50.6417 145.123 55.0704C149.211 60.1804 145.577 66.7667 144.441 68.0158C142.738 69.9463 137.855 72.7851 132.518 72.7851C125.364 72.7851 123.093 71.9902 122.979 71.8767Z" fill="white"/>
<path fill-rule="evenodd" clip-rule="evenodd" d="M95.8419 11.6923C96.069 16.3481 93.0029 23.048 84.5998 23.1615C78.4677 23.2751 75.4017 18.5057 74.7204 17.7108C74.039 16.9159 72.5628 13.9635 68.7019 13.8499C64.9545 13.7364 63.2512 17.2566 63.1376 19.0735C63.0241 20.8904 63.819 25.2055 68.8154 25.3191C73.3577 25.4326 75.6288 20.5497 75.6288 20.5497V25.6598C75.6288 25.6598 73.2441 28.4987 68.929 28.6122C64.6139 28.7258 59.5038 25.092 59.7309 18.8464C59.9581 12.6008 66.2037 10.3297 69.1561 10.4432C72.1086 10.5568 74.6068 11.9195 76.7644 14.9855C78.922 17.938 81.8744 20.4362 86.076 19.5277C88.5742 19.0735 92.4352 17.0295 92.4352 11.5788C92.4352 6.1281 86.7573 4.08408 84.5998 4.08408C83.1235 4.08408 81.1931 4.53828 79.0355 6.5823C76.8779 8.73987 75.8559 11.9195 75.8559 11.9195V5.10608C75.8559 5.10608 79.2626 0.563828 84.3727 0.563828C89.3691 0.450272 95.6147 4.53828 95.8419 11.6923Z" fill="white"/>
</svg>
