<svg width="231" height="31" viewBox="0 0 231 31" fill="none" xmlns="http://www.w3.org/2000/svg">
<path fill-rule="evenodd" clip-rule="evenodd" d="M133.122 14.7082C129.009 9.47589 132.341 1.32809 139.838 1.25H155.092L153.712 4.89438H145.643H141.374C139.317 4.92041 138.172 7.36735 139.317 8.87716C141.217 11.7406 144.445 13.745 146.502 16.6865C150.927 22.4915 146.476 30.0406 139.89 30.0666H123.1L124.479 26.4223H133.616H137.729C139.76 26.3962 140.905 23.9493 139.838 22.4915C138.172 19.7582 135.204 17.1811 133.122 14.7082Z" fill="white"/>
<path fill-rule="evenodd" clip-rule="evenodd" d="M42.8962 30.0666H34.0195L44.9006 1.25H45.1609H53.517H53.7773L42.8962 30.0666Z" fill="white"/>
<path fill-rule="evenodd" clip-rule="evenodd" d="M117.709 30.0666H109.353L120.234 1.25H128.59L117.709 30.0666Z" fill="white"/>
<path fill-rule="evenodd" clip-rule="evenodd" d="M158.345 30.0666H149.989L160.87 1.25H169.226L158.345 30.0666Z" fill="white"/>
<path fill-rule="evenodd" clip-rule="evenodd" d="M170.971 9.96933C173.887 3.9561 180.004 0.780285 185.679 0.962504H187.866H190.859C195.233 1.17075 197.888 4.68498 198.096 7.60048C198.148 8.30333 198.148 8.95411 198.044 9.50077C197.966 9.81315 197.888 10.1515 197.81 10.49C196.899 14.1864 195.519 17.9609 193.697 21.345C190.781 27.3322 184.664 30.534 178.989 30.3518H176.802H173.835C169.462 30.1436 166.806 26.6293 166.598 23.7138C166.546 23.011 166.546 22.3342 166.65 21.8136C166.728 21.5012 166.806 21.1628 166.885 20.8244C167.796 17.1279 169.175 13.3534 170.971 9.96933ZM186.798 3.9561C183.727 4.0342 181.124 5.7783 180.004 8.58967L174.486 23.2713C174.329 23.6097 174.277 24.0002 174.277 24.3907C174.277 25.9525 175.527 27.2541 177.115 27.3582H177.922C180.993 27.2801 183.597 25.536 184.69 22.7247L190.209 8.04302C190.365 7.70461 190.417 7.31414 190.417 6.92367C190.417 5.36179 189.167 4.06023 187.605 3.93007L186.798 3.9561Z" fill="white"/>
<path fill-rule="evenodd" clip-rule="evenodd" d="M15.6413 12.3393H26.21L30.401 1.25H39.2777L29.0734 28.3225C29.0734 28.3225 29.0734 28.3486 29.0474 28.3486C28.6309 29.3638 27.6417 30.0666 26.4703 30.0927H19.546L24.7522 16.3221H14.1835L8.97725 30.0927H0.100586L10.9817 1.25H19.8323L15.6413 12.3393Z" fill="white"/>
<path fill-rule="evenodd" clip-rule="evenodd" d="M64.5794 12.079L79.0267 1.25H85.6647L70.8789 12.3393L80.2502 30.0666H72.7272C72.7532 30.0666 72.7792 30.0666 72.8053 30.0666C71.6339 30.1447 70.5666 29.4939 70.098 28.5308C70.098 28.5308 70.098 28.5048 70.072 28.5048L64.1889 17.3634L61.9762 19.0294L57.8112 30.0927H48.9346L59.8157 1.25H68.6923L64.5794 12.079Z" fill="white"/>
<path fill-rule="evenodd" clip-rule="evenodd" d="M98.3424 21.0598L111.931 1.25H116.825L97.8478 28.8432C97.3532 29.572 96.5202 30.0406 95.6091 30.0666H95.4269C95.4009 30.0666 95.3748 30.0666 95.3228 30.0666C95.3228 30.0666 95.3228 30.0666 95.3488 30.0666H95.0624H92.1469H90.7152L88.3984 1.25H96.7545L98.3424 21.0598Z" fill="white"/>
<path fill-rule="evenodd" clip-rule="evenodd" d="M206.921 10.5692L206.895 10.2048L199.372 30.0666H195.077L206.01 1.25H210.305H211.45L219.312 20.7214L226.705 1.25H231L220.067 30.0666H216.136C215.043 30.0146 214.106 29.3378 213.715 28.4006L206.921 10.5692Z" fill="white"/>
</svg>
