<svg width="209" height="45" viewBox="0 0 209 45" fill="none" xmlns="http://www.w3.org/2000/svg">
<path d="M83.1013 11.3185H78.5259V33.1625H83.1013V24.3068H93.1378V33.1625H97.5656V11.3185H93.1378V20.1742H83.1013V11.3185ZM118.229 23.864C118.229 27.4063 116.458 29.325 113.211 29.325C109.964 29.325 108.192 27.4063 108.192 23.7165V11.3185H103.765V23.864C103.765 30.063 107.159 33.6053 113.211 33.6053C119.262 33.6053 122.657 30.063 122.657 23.7165V11.3185H118.229V23.864ZM161.031 11.3185L156.013 26.3732L151.142 11.3185H146.419L154.094 33.1625H157.784L162.802 18.8458L167.673 33.1625H171.511L179.038 11.3185H174.462L169.592 26.3732L164.574 11.3185H161.031ZM195.126 19.7314H187.008V15.3036H198.816V11.3185H182.58V33.1625H199.258V29.1775H187.008V23.7165H195.126V19.7314ZM204.572 11.3185H209V33.1625H204.572V11.3185ZM141.401 28.5871L143.32 33.1625H148.043L138.449 11.3185L138.302 11.1709H134.464L124.871 33.1625H129.446L131.365 28.8823L131.512 28.5871H141.401ZM136.383 16.7795L139.483 24.1592L139.63 24.602H132.841L132.988 24.1592L136.383 16.7795Z" fill="white"/>
<path d="M25.123 34.7965C25.123 34.7965 25.2706 34.6489 25.123 34.6489C18.3337 19.8895 9.0352 8.52467 9.0352 8.52467C9.0352 8.52467 4.01698 13.2477 4.31217 18.1183C4.45976 21.8082 7.26406 23.8745 7.26406 23.8745C11.6919 28.1548 22.3187 33.6158 24.8278 34.7965H25.123ZM23.3519 38.4864C23.3519 38.3388 23.0567 38.3388 23.0567 38.3388L5.34533 38.9292C7.26406 42.3239 10.5111 44.9806 13.9058 44.2426C16.2673 43.6522 21.5808 39.9623 23.2043 38.7816C23.4995 38.4864 23.3519 38.4864 23.3519 38.4864V38.4864ZM23.6471 36.8629C23.7947 36.7153 23.6471 36.5677 23.6471 36.5677C15.8246 31.2543 0.769894 23.2841 0.769894 23.2841C-0.558458 27.5644 1.21268 30.9591 1.21268 30.9591C3.13141 35.0917 6.82128 36.2725 6.82128 36.2725C8.44482 37.0104 10.216 37.0104 10.216 37.0104H23.4995C23.6471 37.0104 23.6471 36.8629 23.6471 36.8629ZM24.8278 0.849743C24.0899 0.849743 22.0235 1.44012 22.0235 1.44012C17.3005 2.62088 16.2673 6.90113 16.2673 6.90113C15.3818 9.55783 16.2673 12.5097 16.2673 12.5097C17.8909 19.4467 25.5658 30.9591 27.1894 33.3206L27.3369 33.4682C27.4845 33.4682 27.4845 33.3206 27.4845 33.3206C30.1412 7.49151 24.8278 0.849743 24.8278 0.849743V0.849743ZM30.7316 33.3206C30.8792 33.3206 31.0268 33.173 31.0268 33.173C32.798 30.6639 40.3253 19.2991 41.9488 12.3621C41.9488 12.3621 42.8344 8.96745 41.9488 6.75353C41.9488 6.75353 40.7681 2.47329 36.045 1.29253C36.045 1.29253 34.7167 0.997338 33.2407 0.702148C33.2407 0.702148 27.9273 7.49151 30.584 33.0254C30.584 33.3206 30.7316 33.3206 30.7316 33.3206V33.3206ZM34.8643 38.3388C34.8643 38.3388 34.7167 38.3388 34.7167 38.4864V38.7816C36.4878 39.9623 41.506 43.6522 44.0152 44.2426C44.0152 44.2426 48.5906 45.8661 52.5756 38.9292L34.8643 38.3388ZM57.4463 23.1365C57.4463 23.1365 42.3916 31.2543 34.5691 36.5677C34.5691 36.5677 34.4215 36.7153 34.4215 36.8629C34.4215 36.8629 34.4215 37.0104 34.5691 37.0104H48.1478C48.1478 37.0104 49.4762 37.0104 51.2473 36.2725C51.2473 36.2725 54.9372 35.0917 57.0035 30.8115C57.0035 30.6639 58.7746 27.2692 57.4463 23.1365V23.1365ZM33.0931 34.7965C33.0931 34.7965 33.2407 34.9441 33.3883 34.7965C35.8974 33.4682 46.5243 28.1548 50.9521 23.8745C50.9521 23.8745 53.7564 21.6606 53.904 18.1183C54.1992 13.1001 49.181 8.52467 49.181 8.52467C49.181 8.52467 39.8825 19.5943 33.0931 34.5013C33.0931 34.5013 32.9455 34.6489 33.0931 34.7965Z" fill="white"/>
</svg>
