<svg width="184" height="39" viewBox="0 0 184 39" fill="none" xmlns="http://www.w3.org/2000/svg">
<path d="M77.4387 9.20117C74.1959 9.20117 70.3046 10.8225 68.0346 13.7411V9.52545H60.252V38.3863H68.0346V22.1723C68.0346 19.2538 70.3046 16.011 74.5202 16.011C77.763 16.011 81.0058 18.281 81.0058 22.1723V38.3863H88.7885V20.5509C89.1128 14.0654 84.2486 9.20117 77.4387 9.20117Z" fill="white"/>
<path d="M145.076 9.56055L137.941 29.0173L130.807 9.56055H121.728L133.402 38.4214H142.157L153.831 9.56055H145.076Z" fill="white"/>
<path d="M36.447 18.2029C37.7442 16.2572 40.0141 15.2844 42.6083 15.2844C45.5269 15.2844 47.4725 16.9058 48.7696 19.1757L34.8257 25.0128C34.5014 22.0943 35.4742 19.8243 36.447 18.2029ZM51.6881 29.5526C48.4454 32.1469 46.4997 32.4712 43.5812 32.4712C40.9869 32.4712 38.717 31.4983 37.0956 30.2012L57.2009 21.77C56.8766 18.5272 55.5795 15.933 53.6338 13.663C51.0396 10.7445 47.1482 8.79883 42.2841 8.79883C33.5285 8.79883 27.043 15.2844 27.043 23.7156C27.043 32.4712 33.5285 38.6325 43.2569 38.6325C48.4454 38.6325 53.9581 36.0382 56.5523 33.1197L51.6881 29.5526Z" fill="white"/>
<path d="M26.5336 31.0134H8.69828V0.855469H0.591309V38.1475H26.5336V31.0134Z" fill="white"/>
<path d="M168.434 15.8372C163.895 15.8372 160.976 19.08 160.976 23.9442C160.976 28.4841 164.219 32.0511 168.759 32.0511C173.299 32.0511 176.217 28.4841 176.217 23.9442C176.217 19.4043 172.65 15.8372 168.434 15.8372ZM168.434 38.861C159.679 38.861 153.193 32.3754 153.193 23.9442C153.193 15.5129 160.003 9.02734 168.759 9.02734C177.514 9.02734 184 15.5129 184 23.9442C184 32.3754 177.19 38.861 168.434 38.861Z" fill="white"/>
<path d="M107.609 15.8372C103.069 15.8372 100.151 19.08 100.151 23.9442C100.151 28.4841 103.394 32.0511 107.934 32.0511C112.473 32.0511 115.392 28.4841 115.392 23.9442C115.392 19.4043 111.825 15.8372 107.609 15.8372ZM107.609 38.861C98.8537 38.861 92.3682 32.3754 92.3682 23.9442C92.3682 15.5129 99.178 9.02734 107.934 9.02734C116.689 9.02734 123.175 15.5129 123.175 23.9442C123.175 32.3754 116.365 38.861 107.609 38.861Z" fill="white"/>
</svg>
