<svg width="240" height="37" viewBox="0 0 240 37" fill="none" xmlns="http://www.w3.org/2000/svg">
<path d="M204.319 5.92871V31.946V32.2839H212.225V18.9712L220.402 32.2839H229.796V5.92871H221.889V19.3766L213.645 5.92871H204.319Z" fill="white"/>
<path d="M13.6152 5.92969V31.947V32.2849H21.5218V18.9721L29.6987 32.2849H39.0919V5.92969H31.1854V19.3776L22.9409 5.92969H13.6152Z" fill="white"/>
<path d="M64.5004 5.92923V12.7545H50.3091V16.1334H63.2164V21.8099H50.3091V25.1212H64.5004V32.2844H41.9971V5.9292L64.5004 5.92923Z" fill="white"/>
<path d="M66.1899 12.8221V5.9292H90.653V12.8221H82.5437V32.2844H74.2992V12.8221H66.1899Z" fill="white"/>
<path d="M101.195 32.2844L91.3291 5.9292H99.8439L104.709 19.5798H106.737L111.467 5.9292H120.117L110.251 32.2844H101.195Z" fill="white"/>
<path d="M129.984 5.9292H121.604V32.2844H129.984V5.9292Z" fill="white"/>
<path d="M168.772 5.9292H160.393V32.2844H168.772V5.9292Z" fill="white"/>
<path fill-rule="evenodd" clip-rule="evenodd" d="M132.958 9.41763C132.958 7.49075 134.52 5.92871 136.447 5.92871H156.61V12.8216H132.958V9.41763ZM132.957 15.74V12.8218H141.066V16.1996H152.149V16.2015H154.336C156.263 16.2015 157.825 17.7635 157.825 19.6904V22.5519H157.825V25.5253H157.825V28.7948C157.825 30.7216 156.263 32.2837 154.336 32.2837H132.957V25.1205H149.716V25.1198V22.5519H136.446C134.519 22.5519 132.957 20.9898 132.957 19.063V16.2007V16.1996V15.74Z" fill="white"/>
<path fill-rule="evenodd" clip-rule="evenodd" d="M204.32 28.4004V31.9456V32.2835H212.226V29.6345C209.58 29.207 206.945 28.7956 204.32 28.4004ZM219.522 30.8488L220.403 32.2835H227.65C224.928 31.7889 222.219 31.3107 219.522 30.8488Z" fill="#00A3FF"/>
<path fill-rule="evenodd" clip-rule="evenodd" d="M160.394 23.2471V32.2837H168.774V23.9937C165.973 23.7246 163.18 23.4757 160.394 23.2471Z" fill="#00A3FF"/>
<path fill-rule="evenodd" clip-rule="evenodd" d="M134.147 21.6924C134.761 22.2302 135.565 22.5562 136.446 22.5562H149.716V25.1226H132.956V32.2858H154.336C156.262 32.2858 157.825 30.7238 157.825 28.7969V25.5296H157.826V23.0447C149.887 22.4276 142.002 21.9758 134.147 21.6924Z" fill="#00A3FF"/>
<path fill-rule="evenodd" clip-rule="evenodd" d="M121.605 21.3828V32.2863H129.985V21.5577C127.189 21.4779 124.396 21.4196 121.605 21.3828Z" fill="#00A3FF"/>
<path fill-rule="evenodd" clip-rule="evenodd" d="M97.2021 21.6159L101.197 32.2858H110.252L114.351 21.3359C108.633 21.3375 102.92 21.4305 97.2021 21.6159Z" fill="#00A3FF"/>
<path fill-rule="evenodd" clip-rule="evenodd" d="M74.3008 22.8518V32.283H82.5452V22.293C79.8004 22.4578 77.0526 22.644 74.3008 22.8518Z" fill="#00A3FF"/>
<path fill-rule="evenodd" clip-rule="evenodd" d="M41.9985 26.2553V32.2848H64.5018V25.1216H50.9417C47.969 25.4744 44.9884 25.8523 41.9985 26.2553Z" fill="#00A3FF"/>
<path fill-rule="evenodd" clip-rule="evenodd" d="M13.6167 30.787V31.9486V32.2865H21.5233V29.3863C18.8971 29.8341 16.2618 30.3009 13.6167 30.787ZM27.3285 28.4253L29.7001 32.2865H39.0934V26.6567C35.189 27.2033 31.2684 27.7927 27.3285 28.4253Z" fill="#00A3FF"/>
<path d="M0.235352 33.9571C51.0679 16.2526 170.578 11.7614 240 34.5809C154.761 19.2467 82.9058 18.1239 0.235352 33.9571Z" fill="white"/>
<circle cx="185.938" cy="18.4984" r="17.7619" fill="#00A3FF" stroke="black" stroke-width="0.697783"/>
<circle cx="185.937" cy="18.4982" r="5.81166" fill="#151B1F"/>
<circle cx="189.992" cy="14.5788" r="3.10856" fill="#FEFEFE"/>
<circle cx="194.317" cy="9.84891" r="1.62186" fill="#FEFEFE"/>
</svg>
