<svg width="240" height="37" viewBox="0 0 240 37" fill="none" xmlns="http://www.w3.org/2000/svg">
<path d="M204.083 5.92773V31.945V32.2829H211.99V18.9702L220.167 32.2829H229.56V5.92773H221.654V19.3756L213.409 5.92773H204.083Z" fill="black"/>
<path d="M13.3799 5.92773V31.945V32.2829H21.2864V18.9702L29.4633 32.2829H38.8566V5.92773H30.95V19.3756L22.7056 5.92773H13.3799Z" fill="black"/>
<path d="M64.265 5.92777V12.7531H50.0737V16.1319H62.981V21.8084H50.0737V25.1197H64.265V32.2829H41.7617V5.92773L64.265 5.92777Z" fill="black"/>
<path d="M65.9546 12.8206V5.92773H90.4176V12.8206H82.3083V32.2829H74.0639V12.8206H65.9546Z" fill="black"/>
<path d="M100.96 32.2829L91.0938 5.92773H99.6085L104.474 19.5784H106.501L111.232 5.92773H119.882L110.015 32.2829H100.96Z" fill="black"/>
<path d="M129.748 5.92773H121.369V32.2829H129.748V5.92773Z" fill="black"/>
<path d="M168.537 5.92773H160.157V32.2829H168.537V5.92773Z" fill="black"/>
<path fill-rule="evenodd" clip-rule="evenodd" d="M132.722 9.41665C132.722 7.48977 134.284 5.92773 136.211 5.92773H156.374V12.8206H132.722V9.41665ZM132.721 15.739V12.8209H140.831V16.1986H151.913V16.2005H154.101C156.028 16.2005 157.59 17.7625 157.59 19.6894V22.5509H157.59V25.5243H157.59V28.7938C157.59 30.7207 156.028 32.2827 154.101 32.2827H132.721V25.1195H149.481V25.1188V22.5509H136.21C134.283 22.5509 132.721 20.9889 132.721 19.062V16.1997V16.1986V15.739Z" fill="black"/>
<path fill-rule="evenodd" clip-rule="evenodd" d="M204.084 28.3984V31.9436V32.2815H211.991V29.6325C209.345 29.205 206.709 28.7936 204.084 28.3984ZM219.287 30.8468L220.168 32.2815H227.414C224.692 31.787 221.984 31.3087 219.287 30.8468Z" fill="#00A3FF"/>
<path fill-rule="evenodd" clip-rule="evenodd" d="M160.159 23.2461V32.2827H168.538V23.9927C165.737 23.7237 162.945 23.4747 160.159 23.2461Z" fill="#00A3FF"/>
<path fill-rule="evenodd" clip-rule="evenodd" d="M133.912 21.6914C134.526 22.2292 135.33 22.5552 136.21 22.5552H149.481V25.1216H132.721V32.2848H154.1C156.027 32.2848 157.589 30.7228 157.589 28.7959V25.5286H157.59V23.0437C149.651 22.4266 141.767 21.9749 133.912 21.6914Z" fill="#00A3FF"/>
<path fill-rule="evenodd" clip-rule="evenodd" d="M121.37 21.3809V32.2843H129.75V21.5557C126.954 21.4759 124.161 21.4176 121.37 21.3809Z" fill="#00A3FF"/>
<path fill-rule="evenodd" clip-rule="evenodd" d="M96.9668 21.6139L100.961 32.2838H110.017L114.116 21.334C108.398 21.3356 102.684 21.4285 96.9668 21.6139Z" fill="#00A3FF"/>
<path fill-rule="evenodd" clip-rule="evenodd" d="M74.0654 22.8498V32.2811H82.3099V22.291C79.565 22.4558 76.8172 22.642 74.0654 22.8498Z" fill="#00A3FF"/>
<path fill-rule="evenodd" clip-rule="evenodd" d="M41.7632 26.2529V32.2823H64.2665V25.1191H50.7063C47.7336 25.472 44.753 25.8498 41.7632 26.2529Z" fill="#00A3FF"/>
<path fill-rule="evenodd" clip-rule="evenodd" d="M13.3813 30.7845V31.9462V32.2841H21.2879V29.3839C18.6617 29.8316 16.0265 30.2985 13.3813 30.7845ZM27.0932 28.4228L29.4648 32.2841H38.858V26.6543C34.9537 27.2008 31.033 27.7902 27.0932 28.4228Z" fill="#00A3FF"/>
<path d="M0 33.9561C50.8325 16.2516 170.343 11.7604 239.765 34.5799C154.525 19.2457 82.6705 18.1229 0 33.9561Z" fill="white"/>
<circle cx="185.703" cy="18.4975" r="17.7619" fill="#00A3FF" stroke="black" stroke-width="0.697783"/>
<circle cx="185.702" cy="18.4972" r="5.81166" fill="#151B1F"/>
<circle cx="189.757" cy="14.5773" r="3.10856" fill="#FEFEFE"/>
<circle cx="194.081" cy="9.84842" r="1.62186" fill="#FEFEFE"/>
</svg>
