<svg width="77" height="19" viewBox="0 0 77 19" fill="none" xmlns="http://www.w3.org/2000/svg">
<path d="M19.3274 18.6998H17.1796V11.1376C17.1796 8.3532 16.1491 6.961 14.0873 6.961C13.6096 6.961 13.1708 7.05675 12.77 7.24824C12.3692 7.43973 12.0209 7.69851 11.7251 8.02629C11.4292 8.35407 11.2003 8.7267 11.0375 9.14505C10.8746 9.5634 10.7941 10.0007 10.7941 10.4553V18.6998H8.64723V10.6468C8.64723 9.55477 8.39844 8.66718 7.90266 7.98488C7.40597 7.30258 6.67134 6.961 5.69787 6.961C5.20209 6.961 4.7434 7.06537 4.32362 7.27498C3.90383 7.48459 3.54104 7.76665 3.23525 8.12117C2.92946 8.47569 2.69152 8.87679 2.51962 9.32274C2.34773 9.76869 2.26178 10.219 2.26178 10.6744V18.6998H0.114898V8.95442C0.114898 8.42652 0.104947 7.8762 0.0859476 7.30258C0.0669487 6.72897 0.0379979 6.13293 0 5.51446H1.91889V7.6709H2.11883C3.0923 6.05098 4.52356 5.24102 6.4135 5.24102C7.32997 5.24102 8.12702 5.47823 8.80465 5.95092C9.48228 6.42448 9.96359 7.07055 10.2504 7.88914H10.3074C10.8032 7.01534 11.4383 6.35634 12.2109 5.91038C12.9844 5.46443 13.8665 5.24102 14.8599 5.24102C16.2151 5.24102 17.2981 5.737 18.1096 6.72897C18.9211 7.72093 19.3264 9.10019 19.3264 10.865V18.6998H19.3274ZM30.496 18.6998L30.2961 17.0074H30.2101C29.2747 18.3358 27.8814 19 26.0295 19C25.4378 19 24.8931 18.9086 24.3974 18.7274C23.9007 18.5454 23.4709 18.2866 23.109 17.9494C22.7472 17.6121 22.4604 17.2171 22.2505 16.7616C22.0406 16.307 21.9356 15.8059 21.9356 15.2599C21.9356 13.6581 22.6323 12.4435 24.0255 11.6155C25.4188 10.7874 27.4426 10.3734 30.0952 10.3734V10.0732C30.0952 7.90811 29.0358 6.82472 26.917 6.82472C25.5997 6.82472 24.4354 7.14301 23.4239 7.78045L22.9082 6.36065C24.1296 5.61452 25.5708 5.24102 27.2318 5.24102C30.591 5.24102 32.2711 6.99723 32.2711 10.5096V15.5609C32.2711 16.1975 32.2855 16.7763 32.3145 17.2947C32.3434 17.814 32.3959 18.2823 32.4719 18.7007H30.496V18.6998ZM30.1242 11.8751H29.6944C25.9915 11.8751 24.1395 12.9128 24.1395 14.9873C24.1395 15.8067 24.3684 16.4157 24.8271 16.8168C25.2849 17.2171 25.8576 17.4172 26.5451 17.4172C26.9839 17.4172 27.4182 17.3447 27.8479 17.1989C28.2777 17.0532 28.6595 16.8487 28.9933 16.5848C29.3271 16.3208 29.5994 15.9982 29.8093 15.6161C30.0192 15.234 30.1242 14.8061 30.1242 14.3335V11.8751V11.8751ZM45.0429 7.58896C44.2024 7.15163 43.2289 6.9334 42.1225 6.9334C41.3399 6.9334 40.6424 7.06537 40.0317 7.32932C39.421 7.59327 38.9053 7.95728 38.4855 8.42135C38.0657 8.88541 37.7409 9.43574 37.5121 10.0732C37.2832 10.7098 37.1683 11.4016 37.1683 12.1477C37.1683 12.9119 37.2877 13.6132 37.5265 14.2498C37.7654 14.8864 38.0992 15.4281 38.529 15.874C38.9578 16.32 39.4689 16.6659 40.0606 16.9117C40.6523 17.1575 41.3109 17.28 42.0365 17.28C43.067 17.28 44.0884 17.0618 45.1008 16.6245L45.5296 18.2073C44.4602 18.7171 43.1629 18.9715 41.6357 18.9715C40.6234 18.9715 39.7078 18.812 38.8863 18.4937C38.0657 18.1754 37.3592 17.7199 36.7675 17.1291C36.1758 16.5373 35.7225 15.8326 35.4077 15.0132C35.0929 14.1937 34.9354 13.2751 34.9354 12.2555C34.9354 11.2178 35.1119 10.2716 35.4647 9.4159C35.8175 8.56108 36.3097 7.82358 36.9394 7.20511C37.5691 6.58664 38.3281 6.1036 39.2156 5.75857C40.1031 5.41268 41.0811 5.2393 42.1505 5.2393C43.5438 5.2393 44.6891 5.47651 45.5866 5.9492L45.0429 7.58896V7.58896ZM63.9993 9.30894C63.9993 10.7469 63.7939 12.0571 63.3832 13.2397C62.9724 14.4232 62.3907 15.4419 61.6362 16.2975C60.8826 17.1532 59.9751 17.8174 58.9157 18.2901C57.8563 18.7628 56.6775 19 55.3801 19C54.1388 19 53.0034 18.768 51.973 18.3039C50.9416 17.8398 50.0541 17.1938 49.3095 16.3657C48.5649 15.5376 47.9877 14.5543 47.577 13.4174C47.1662 12.2805 46.9618 11.0289 46.9618 9.66346C46.9618 8.24452 47.1762 6.93858 47.6059 5.74649C48.0357 4.55441 48.6319 3.53571 49.3954 2.68865C50.159 1.84247 51.0701 1.18259 52.1295 0.709902C53.1898 0.237209 54.3496 0 55.6099 0C56.8693 0 58.0191 0.227721 59.0596 0.682299C60.1 1.13774 60.983 1.77432 61.7086 2.59377C62.4341 3.41322 62.9969 4.3957 63.3977 5.54206C63.7984 6.68843 63.9993 7.94434 63.9993 9.30894ZM61.6796 9.41849C61.6796 8.32646 61.5267 7.31207 61.2209 6.37445C60.9151 5.43769 60.4908 4.61824 59.9471 3.91783C59.4025 3.21742 58.7538 2.6714 58.0002 2.27979C57.2465 1.88905 56.4106 1.69324 55.495 1.69324C54.5595 1.69324 53.7055 1.88905 52.932 2.27979C52.1584 2.6714 51.5007 3.21655 50.9561 3.91783C50.4114 4.61824 49.9871 5.4558 49.6813 6.42965C49.3755 7.4035 49.2235 8.46361 49.2235 9.60998C49.2235 10.6839 49.3764 11.6897 49.6813 12.6264C49.9871 13.564 50.4114 14.3783 50.9561 15.0701C51.4998 15.7619 52.1539 16.3079 52.9175 16.7081C53.6811 17.1084 54.5206 17.3085 55.4371 17.3085C56.3726 17.3085 57.2266 17.1084 58.0002 16.7081C58.7737 16.3079 59.4314 15.7524 59.976 15.0425C60.5207 14.3326 60.9396 13.5002 61.2363 12.5445C61.5312 11.5887 61.6796 10.5467 61.6796 9.41849V9.41849ZM77 13.759C77 14.5413 76.8471 15.2564 76.5413 15.9025C76.2355 16.5486 75.8013 17.0997 75.2385 17.5543C74.6758 18.0098 73.9936 18.36 73.1912 18.6058C72.3896 18.8516 71.4921 18.9741 70.4996 18.9741C68.5138 18.9741 66.9396 18.5834 65.7752 17.8002L66.376 16.0802C67.6543 16.8444 69.0765 17.2265 70.6426 17.2265C71.9598 17.2265 72.9813 16.9264 73.7068 16.326C74.4324 15.7257 74.7952 14.9252 74.7952 13.9237C74.7952 12.9956 74.5129 12.2452 73.9502 11.6715C73.3866 11.0988 72.4565 10.5752 71.1583 10.1016C67.8561 8.91905 66.205 7.18959 66.205 4.91497C66.205 4.20593 66.3524 3.55037 66.6483 2.95002C66.9441 2.34966 67.3594 1.83039 67.8941 1.39393C68.4288 0.957461 69.063 0.621056 69.7976 0.383847C70.5322 0.147501 71.3293 0.0293276 72.1887 0.0293276C73.8489 0.0293276 75.2041 0.320879 76.2545 0.903119L75.5959 2.5955C74.6604 2.03137 73.4961 1.74931 72.1028 1.74931C70.9954 1.74931 70.098 2.01326 69.4113 2.54115C68.7237 3.06905 68.3808 3.76946 68.3808 4.64326C68.3808 5.06161 68.4423 5.4351 68.5663 5.76288C68.6902 6.09066 68.8956 6.39946 69.1824 6.69102C69.4683 6.98257 69.8555 7.26032 70.3422 7.5234C70.829 7.78735 71.4451 8.0651 72.1887 8.35579C73.0473 8.68357 73.7828 9.03378 74.3935 9.40727C75.0042 9.78077 75.5054 10.1853 75.8972 10.6218C76.2889 11.0591 76.5703 11.537 76.7422 12.0554C76.9141 12.5712 77 13.1396 77 13.759Z" fill="white"/>
</svg>
