<svg width="275" height="54" viewBox="0 0 275 54" fill="none" xmlns="http://www.w3.org/2000/svg">
<path fill-rule="evenodd" clip-rule="evenodd" d="M111.586 34.9585V30.7447H126.569V25.7506H111.586V22.1611C111.586 21.849 111.586 21.5369 112.054 21.5369H126.881V16.3867H109.557C107.529 16.3867 106.124 17.7913 106.124 20.2883V36.6751C106.124 39.1722 107.529 40.5768 109.557 40.5768H127.193V35.4266H111.898C111.586 35.5827 111.586 35.4267 111.586 34.9585Z" fill="white"/>
<path fill-rule="evenodd" clip-rule="evenodd" d="M153.255 21.5369V16.3867H135.932C133.903 16.3867 132.499 17.7913 132.499 20.2883V40.5768H138.117V22.1611C138.117 21.849 138.117 21.5369 138.585 21.5369H153.255Z" fill="white"/>
<path fill-rule="evenodd" clip-rule="evenodd" d="M203.82 12.6406C203.196 12.6406 202.572 12.6406 201.791 12.6406H190.711C190.087 12.6406 189.306 12.6406 188.682 12.6406C181.191 13.2649 178.226 17.1665 178.226 24.9697C178.226 32.6169 181.347 36.8307 188.682 37.4549C189.306 37.4549 190.087 37.4549 190.711 37.4549H193.364V40.5762H198.982V37.4549H201.635C202.26 37.4549 203.04 37.4549 203.664 37.4549C210.999 36.8307 214.12 32.773 214.12 24.9697C214.277 17.1665 211.467 13.2649 203.82 12.6406ZM193.52 32.4609H190.867C190.086 32.4609 189.462 32.4609 188.838 32.3048C185.248 31.6805 184.156 29.3396 184.156 25.1258C184.156 20.756 185.248 18.4151 188.838 17.7908C189.462 17.6347 190.086 17.6347 190.867 17.6347H193.364V32.4609H193.52ZM203.82 32.3048C203.196 32.4609 202.572 32.4609 201.791 32.4609H199.138V17.6347H201.791C202.572 17.6347 203.196 17.6347 203.82 17.7908C207.41 18.4151 208.502 20.756 208.502 25.1258C208.502 29.3396 207.41 31.8366 203.82 32.3048Z" fill="white"/>
<path fill-rule="evenodd" clip-rule="evenodd" d="M95.0437 12.0156C92.2345 12.0156 90.5178 13.5763 89.2693 16.5415L81.6221 34.8011L73.8188 16.5415C72.5703 13.4202 70.6976 12.0156 68.0445 12.0156C64.7671 12.0156 62.7383 13.8884 62.7383 18.1021V40.7315H68.6687V18.8825L76.472 37.2981C77.5644 39.7952 79.1251 41.1998 81.4661 41.1998C83.9631 41.1998 85.3676 39.7952 86.4601 37.2981L94.2633 18.7264V40.7315H100.194V18.1021C100.194 13.8884 98.165 12.0156 95.0437 12.0156Z" fill="white"/>
<path fill-rule="evenodd" clip-rule="evenodd" d="M233.472 16.0732H231.443C222.548 16.0732 219.114 19.9749 219.114 28.5584C219.114 36.9859 222.704 41.0436 231.599 41.0436H233.472C242.212 41.0436 245.957 36.8299 245.957 28.5584C245.957 20.1309 242.524 16.0732 233.472 16.0732ZM233.472 36.0495H231.443C226.449 36.0495 224.733 33.5525 224.733 28.7145C224.733 23.7204 226.137 21.2234 231.599 21.2234H233.472C238.778 21.2234 240.183 23.7204 240.183 28.7145C240.183 33.5525 238.622 36.0495 233.472 36.0495Z" fill="white"/>
<path fill-rule="evenodd" clip-rule="evenodd" d="M163.868 15.918C163.712 15.918 163.712 15.918 163.868 15.918C161.527 15.918 160.122 17.0104 159.03 19.1953L151.383 36.3625L149.51 40.7323H151.383H155.752L157.937 35.5821H169.954L172.295 40.7323H178.382L168.862 19.3514C167.613 17.0104 166.053 15.918 163.868 15.918ZM159.654 30.588L163.243 21.8484C163.4 21.3802 163.868 21.3802 164.18 21.8484L167.769 30.588H159.654Z" fill="white"/>
<path fill-rule="evenodd" clip-rule="evenodd" d="M268.588 16.3867V25.5946H256.259V16.3867H250.64V40.7328H256.259V30.9008H268.588V40.7328H274.362V16.3867H268.588Z" fill="white"/>
<path fill-rule="evenodd" clip-rule="evenodd" d="M26.531 0.156074C11.8609 0.156074 0 12.017 0 26.6871C0 39.7965 9.36389 50.565 21.8491 52.7499V29.3402C21.8491 28.2478 22.7854 27.3113 23.8779 27.3113H27.4674C27.6235 27.3113 27.6235 27.1553 27.6235 27.1553V0C27.1553 0.156065 26.8431 0.156074 26.531 0.156074ZM21.3809 22.9415C19.6642 22.9415 18.2596 21.537 18.2596 19.8202C18.2596 18.1035 19.6642 16.6989 21.3809 16.6989C23.0976 16.6989 24.5022 18.1035 24.5022 19.8202C24.5022 21.537 23.0976 22.9415 21.3809 22.9415Z" fill="white"/>
<path fill-rule="evenodd" clip-rule="evenodd" d="M30.7446 0.466797V28.5585C30.7446 29.6509 29.8082 30.5873 28.7158 30.5873H25.1263C24.9702 30.5873 24.9702 30.7434 24.9702 30.7434V53.2167C25.4384 53.2167 26.0627 53.2167 26.5309 53.2167C41.201 53.2167 53.0619 41.3557 53.0619 26.6857C53.0619 13.4202 43.3859 2.33957 30.7446 0.466797ZM30.5886 40.2633C29.0279 40.2633 27.7794 39.0148 27.7794 37.4541C27.7794 35.8935 29.0279 34.645 30.5886 34.645C32.1492 34.645 33.3977 35.8935 33.3977 37.4541C33.2416 39.0148 31.9931 40.2633 30.5886 40.2633ZM37.9236 40.2633C36.3629 40.2633 35.1144 39.0148 35.1144 37.4541C35.1144 35.8935 36.3629 34.645 37.9236 34.645C39.4842 34.645 40.7328 35.8935 40.7328 37.4541C40.7328 39.0148 39.4842 40.2633 37.9236 40.2633ZM45.2586 40.2633C43.698 40.2633 42.4495 39.0148 42.4495 37.4541C42.4495 35.8935 43.698 34.645 45.2586 34.645C46.8193 34.645 48.0678 35.8935 48.0678 37.4541C48.0678 39.0148 46.8193 40.2633 45.2586 40.2633Z" fill="white"/>
</svg>
