<svg width="144" height="36" viewBox="0 0 144 36" fill="none" xmlns="http://www.w3.org/2000/svg">
<path d="M12.7927 0C10.1291 0 6.97785 2.55104 4.35178 6.8653C1.65068 11.3296 0 16.8444 0 21.6463C0 28.6617 3.93911 35.7521 12.7552 35.7521C21.5713 35.7521 25.5104 28.6617 25.5104 21.6463C25.5104 16.8444 23.8973 11.3296 21.1962 6.8653C18.6076 2.55104 15.4563 0 12.7927 0Z" fill="white"/>
<path d="M81.709 10.5436H90.6376V33.8406H100.204V10.5436H109.17V1.91504H81.709V10.5436Z" fill="white"/>
<path d="M129.577 10.5436H143.608V1.91504H129.577C116.672 1.91504 109.807 8.33016 109.807 17.8591C109.807 27.3879 116.709 33.8031 129.577 33.8031H143.608V25.1745H129.577C123.612 25.1745 119.673 23.0362 119.673 17.8215C119.673 12.6819 123.612 10.5436 129.577 10.5436Z" fill="white"/>
<path d="M62.2374 1.91504L57.1353 20.9728L52.0333 1.91504H35.1514V33.8406H44.7178V7.87998L51.6581 33.8406H62.6501L69.5904 7.84246V33.8406H79.1568V1.91504H62.2374Z" fill="white"/>
</svg>
