<svg width="301" height="56" viewBox="0 0 301 56" fill="none" xmlns="http://www.w3.org/2000/svg">
<g clip-path="url(#clip0_237:2337)">
<path d="M134.531 18.6341L140.81 13.9473H119.791V42.0224H140.81V37.3356H125.796V30.1674H138.626V25.4806H125.796V18.6341H134.531Z" fill="white"/>
<path d="M103.913 24.8833H96.6334V18.6341H108.28L114.559 13.9473H90.6279V42.0224H103.139C110.146 42.0224 114.195 38.806 114.195 33.2001C114.195 27.824 110.555 24.8833 103.913 24.8833ZM102.912 37.3356H96.6334V29.5701H102.912C106.734 29.5701 108.508 30.8567 108.508 33.4758C108.508 36.0949 106.597 37.3356 102.912 37.3356Z" fill="white"/>
<path d="M157.826 13.9473H146.406V42.0224H152.412V34.0732H157.871C165.151 34.0732 169.7 30.2134 169.7 24.0102C169.7 17.807 165.151 13.9473 157.826 13.9473ZM157.689 29.3863H152.366V18.6341H157.689C161.556 18.6341 163.649 20.564 163.649 24.0102C163.649 27.4564 161.556 29.3863 157.689 29.3863Z" fill="white"/>
<path d="M80.3462 35.9565C78.7538 36.8296 76.9794 37.2891 75.1596 37.2891C69.7456 37.2891 65.8329 33.3833 65.8329 28.0073C65.8329 22.6312 69.7456 18.7254 75.1596 18.7254C77.1159 18.6795 79.0268 19.3228 80.6191 20.4715L84.9413 17.2551L84.6683 16.9794C82.166 14.7278 78.7993 13.5791 74.9776 13.5791C70.8375 13.5791 67.0613 15.0035 64.3315 17.5767C61.6018 20.2418 60.0549 23.9637 60.1459 27.8235C60.1004 31.7292 61.6018 35.497 64.3315 38.254C67.1978 40.965 71.0195 42.4814 74.9321 42.3895C79.2542 42.3895 83.0304 40.8731 85.5782 38.1162L81.711 35.2213L80.3462 35.9565Z" fill="white"/>
<path d="M241.903 13.9932V42.0684H247.908V30.581H260.693V42.0684H266.698V13.9932H260.693V25.5265H247.908V13.9932H241.903ZM231.575 42.0684H237.899L226.161 13.9932H220.065L208.099 42.0684H214.15L216.561 36.4166H229.3L231.575 42.0684ZM218.381 31.7297L223.022 20.4721L227.389 31.7297H218.381ZM280.165 30.7188H283.896L293.086 42.0224H300.82L288.536 27.5024L299.273 13.9473H292.403L283.486 25.986H280.165V13.9473H274.159V42.0224H280.165V30.7188ZM188.263 24.9292V18.6801H203.959V13.9932H182.257V42.0684H194.769C201.775 42.0684 205.824 38.8519 205.824 33.2461C205.824 27.87 202.185 24.9292 195.542 24.9292H188.263ZM188.263 37.3815V29.6161H194.541C198.363 29.6161 200.137 30.9026 200.137 33.5218C200.137 36.1409 198.272 37.4275 194.541 37.4275H188.263V37.3815Z" fill="white"/>
<path d="M41.3563 13.7627C42.4482 15.1871 43.3581 16.7494 44.1316 18.4036L23.1124 34.0724L14.2861 28.4665V21.7579L23.0669 27.3178L41.3563 13.7627Z" fill="white"/>
<path d="M5.32304 28.0091C5.32304 27.6875 5.32304 27.4118 5.36854 27.0902L0.0454961 26.8145C0.0454961 27.182 0 27.5956 0 27.9632C0 34.3961 2.59328 40.2317 6.77892 44.4591L10.5551 40.6453C7.32487 37.4288 5.32304 32.9717 5.32304 28.0091Z" fill="white"/>
<path d="M23.0669 10.088C23.3854 10.088 23.6583 10.088 23.9768 10.134L24.2498 4.75786C23.8858 4.75786 23.4764 4.71191 23.1124 4.71191C16.7429 4.71191 10.9649 7.33104 6.7793 11.5584L10.5555 15.3722C13.7402 12.1098 18.1988 10.088 23.0669 10.088Z" fill="white"/>
<path d="M23.0667 45.9278C22.7482 45.9278 22.4752 45.9278 22.1568 45.8818L21.8838 51.2579C22.2478 51.2579 22.6572 51.3038 23.0212 51.3038C29.3906 51.3038 35.1686 48.6847 39.3543 44.4574L35.5781 40.6436C32.3934 43.9519 27.9803 45.9278 23.0667 45.9278Z" fill="white"/>
<path d="M33.0755 13.2117L37.5797 9.85734C33.6215 6.64087 28.5714 4.66504 23.0664 4.66504V10.0411C26.7971 10.0871 30.2548 11.2358 33.0755 13.2117Z" fill="white"/>
<path d="M46.1788 28.0066C46.1788 26.5822 46.0424 25.2037 45.8149 23.8252L40.8558 27.5471C40.8558 27.685 40.8558 27.8688 40.8558 28.0066C40.8558 33.2908 38.581 38.0236 34.9868 41.286L38.581 45.2836C43.2216 41.0563 46.1788 34.8531 46.1788 28.0066Z" fill="white"/>
<path d="M23.066 45.9275C17.8339 45.9275 13.1479 43.63 9.91763 40L5.95947 43.63C10.1906 48.3628 16.2871 51.3036 23.066 51.3036V45.9275Z" fill="white"/>
<path d="M11.192 14.7291L7.59784 10.7314C2.91175 15.0048 0 21.162 0 28.0085H5.32304C5.32304 22.7702 7.59784 17.9915 11.192 14.7291Z" fill="white"/>
</g>
<defs>
<clipPath id="clip0_237:2337">
<rect width="300.82" height="55.9665" fill="white"/>
</clipPath>
</defs>
</svg>
