<svg width="231" height="41" viewBox="0 0 231 41" fill="none" xmlns="http://www.w3.org/2000/svg">
<path d="M212.761 22.2856L216.405 12.331L220.045 22.2856H212.761ZM220.19 6.67828H212.619L202.04 33.6696H208.598L211.007 27.0828H221.799L224.21 33.6696H230.765L220.19 6.67828ZM166.795 28.977C162.523 28.977 159.066 24.9636 159.066 20.0107C159.066 15.0579 162.525 11.0416 166.795 11.0416C171.06 11.0416 174.523 15.0572 174.523 20.0107C174.523 24.9642 171.06 28.977 166.795 28.977ZM166.795 5.75293C164.088 5.75376 161.443 6.59053 159.192 8.15745C156.942 9.72437 155.188 11.9511 154.153 14.556C153.117 17.161 152.847 20.0272 153.375 22.7923C153.904 25.5574 155.208 28.0973 157.122 30.0907C159.036 32.0841 161.475 33.4415 164.13 33.9915C166.785 34.5414 169.536 34.2591 172.037 33.1802C174.538 32.1013 176.676 30.2743 178.18 27.9302C179.684 25.586 180.486 22.8301 180.487 20.0107C180.486 16.2291 179.043 12.6026 176.476 9.92888C173.908 7.25512 170.426 5.75302 166.795 5.75293ZM112.77 28.977C108.505 28.977 105.046 24.9636 105.046 20.0107C105.046 15.0579 108.504 11.0416 112.77 11.0416C117.037 11.0416 120.5 15.0572 120.5 20.0107C120.5 24.9642 117.041 28.977 112.77 28.977ZM112.77 5.75293C110.064 5.75369 107.418 6.59041 105.167 8.1573C102.917 9.72418 101.163 11.9509 100.128 14.5558C99.0922 17.1608 98.8216 20.027 99.3501 22.7921C99.8785 25.5573 101.182 28.0971 103.096 30.0905C105.011 32.084 107.449 33.4415 110.104 33.9914C112.759 34.5414 115.511 34.2591 118.012 33.1802C120.513 32.1013 122.65 30.2743 124.154 27.9302C125.658 25.5861 126.461 22.8301 126.462 20.0107C126.462 18.1381 126.108 16.2837 125.42 14.5535C124.732 12.8234 123.724 11.2514 122.452 9.9273C121.181 8.60324 119.671 7.55308 118.01 6.83682C116.349 6.12057 114.568 5.75225 112.77 5.75293V5.75293ZM146.61 6.67828L139.902 17.5988L133.188 6.67828H126.628L137.012 23.6047V33.6696H142.786V23.6073L153.17 6.67828H146.61ZM203.42 6.67828H181.261V11.854H189.469V33.6696H195.249V11.854H203.421L203.42 6.67828ZM75.7158 11.854H83.9257V33.6696H89.7028V11.854H97.8768V6.67828H75.7158V11.854Z" fill="white"/>
<path d="M42.4048 1.98664C33.8795 -0.662214 24.8254 -0.662214 16.3001 1.98664C6.63841 5.30824 0 12.2066 0 20.1777C0 31.3922 13.1408 40.4851 29.353 40.4851C45.5653 40.4851 58.7034 31.3922 58.7034 20.1777C58.7034 12.2066 52.0646 5.31073 42.4048 1.98664V1.98664ZM29.353 31.7538C26.9337 31.7538 24.9583 26.6671 24.8425 20.2754C26.2971 20.4154 27.8062 20.4903 29.353 20.4903C30.8998 20.4903 32.407 20.4154 33.8613 20.2754C33.7447 26.6671 31.7696 31.7538 29.353 31.7538ZM25.1472 15.2718C25.8078 10.7852 27.4401 7.60742 29.353 7.60742C31.2659 7.60742 32.8975 10.7852 33.5566 15.2718C32.2127 15.4015 30.8046 15.4734 29.353 15.4734C27.9015 15.4734 26.493 15.4015 25.1472 15.2718ZM36.1271 14.9331C35.1454 7.89129 32.4836 2.84323 29.353 2.84323C26.2225 2.84323 23.5588 7.89129 22.5771 14.9331C16.6149 13.9377 12.4475 11.6726 12.4475 9.0334C12.4475 5.4774 20.0167 2.59427 29.3534 2.59427C38.6902 2.59427 46.2594 5.4774 46.2594 9.0334C46.2594 11.6726 42.0916 13.9377 36.129 14.9331H36.1271ZM4.28557 19.4346C4.28557 15.997 5.52262 12.7752 7.68153 10.0034C7.65631 10.1962 7.64332 10.3906 7.64267 10.5853C7.64267 14.9077 13.7172 18.5859 22.1857 19.9367C22.1791 20.2633 22.174 20.5904 22.174 20.9212C22.174 28.9621 24.2599 35.7728 27.1432 38.1211C14.3324 37.2832 4.28441 29.2389 4.28441 19.4346H4.28557ZM31.564 38.1211C34.4458 35.7728 36.5309 28.9626 36.5309 20.9212C36.5309 20.5887 36.5278 20.2633 36.5208 19.9367C44.9878 18.5855 51.063 14.9077 51.063 10.5853C51.0624 10.3906 51.0494 10.1962 51.0242 10.0034C53.1823 12.7752 54.4201 15.997 54.4201 19.4346C54.4201 29.2389 44.3722 37.2832 31.564 38.1211" fill="white"/>
</svg>
