<svg width="137" height="137" viewBox="0 0 137 137" fill="none" xmlns="http://www.w3.org/2000/svg">
<path d="M137 68.6834C137 106.411 106.414 136.998 68.6838 136.998C30.9528 136.998 0.367188 106.411 0.367188 68.6834C0.367188 30.9532 30.9532 0.367188 68.6838 0.367188C106.414 0.367188 137 30.9532 137 68.6834Z" fill="#DD4814"/>
<path d="M22.2303 59.5605C17.1905 59.5605 13.1074 63.6439 13.1074 68.6834C13.1074 73.7204 17.1905 77.8034 22.2303 77.8034C27.2673 77.8034 31.3503 73.7204 31.3503 68.6834C31.3503 63.6439 27.2673 59.5605 22.2303 59.5605ZM87.3532 101.015C82.9906 103.535 81.4948 109.11 84.0149 113.47C86.5318 117.833 92.107 119.328 96.4696 116.809C100.832 114.292 102.328 108.716 99.808 104.353C97.2911 99.9936 91.7126 98.4982 87.3532 101.015ZM42.0421 68.6834C42.0421 59.6698 46.5192 51.7065 53.3698 46.8844L46.7016 35.7158C38.7215 41.0501 32.7839 49.2013 30.3164 58.7479C33.1956 61.0973 35.0385 64.6738 35.0385 68.683C35.0385 72.6897 33.1956 76.2662 30.3164 78.6156C32.7807 88.165 38.7183 96.3167 46.7016 101.651L53.3698 90.4795C46.5192 85.6602 42.0421 77.6974 42.0421 68.6834ZM68.6833 42.0394C82.6014 42.0394 94.0202 52.7107 95.2188 66.3199L108.215 66.1283C107.576 56.0812 103.187 47.0615 96.4427 40.4291C92.9747 41.7393 88.9687 41.5389 85.5063 39.543C82.0378 37.5414 79.8631 34.1649 79.2687 30.4996C75.8978 29.5694 72.3502 29.06 68.6825 29.06C62.3774 29.06 56.4161 30.541 51.1232 33.1607L57.4609 44.5177C60.8703 42.9311 64.6738 42.0394 68.6833 42.0394ZM68.6833 95.3245C64.6738 95.3245 60.8703 94.4324 57.4613 92.8462L51.1236 104.203C56.4165 106.826 62.3778 108.307 68.6833 108.307C72.351 108.307 75.8986 107.797 79.2691 106.864C79.8635 103.199 82.039 99.8257 85.5067 97.8205C88.9715 95.8214 92.9751 95.6246 96.4431 96.9348C103.187 90.3024 107.576 81.2827 108.216 71.2356L95.216 71.044C94.0202 84.6568 82.6018 95.3245 68.6833 95.3245ZM87.35 36.346C91.7126 38.8654 97.2882 37.3731 99.8051 33.0105C102.325 28.6479 100.833 23.0723 96.4696 20.5521C92.107 18.0352 86.5318 19.5307 84.0113 23.8933C81.4948 28.2535 82.9902 33.8291 87.35 36.346Z" fill="white"/>
</svg>
