<svg width="34" height="34" viewBox="0 0 34 34" fill="none" xmlns="http://www.w3.org/2000/svg">
<path d="M15.8326 2.63914C21.877 1.71119 27.9386 0.842823 34.0001 0C34.0001 5.31234 34.0001 10.6162 34.0001 15.9285C27.9471 15.9541 21.8941 16.0477 15.8326 16.0647C15.824 11.5867 15.824 7.11718 15.8326 2.63914Z" fill="#3173B9"/>
<path d="M0.474609 4.7838C5.02926 4.07719 9.60094 3.47274 14.1726 2.90234C14.1726 7.30376 14.1726 11.7052 14.1811 16.1066C9.60945 16.1066 5.04629 16.1747 0.474609 16.1577V4.7838V4.7838Z" fill="#3173B9"/>
<path d="M0.474609 17.5454C5.03777 17.5284 9.60094 17.605 14.1726 17.5965C14.1726 22.015 14.1811 26.4249 14.1726 30.8433C9.60945 30.1708 5.04629 29.5748 0.474609 28.9619V17.5454V17.5454Z" fill="#3173B9"/>
<path d="M15.7988 17.7227C21.8689 17.7227 27.9304 17.7227 33.9919 17.7227C34.0004 23.018 33.9919 28.3133 33.9919 33.6086C27.9474 32.7062 21.8859 31.8634 15.8244 31.0376C15.8244 26.6021 15.8073 22.1666 15.7988 17.7227Z" fill="#3173B9"/>
</svg>
