<svg width="36" height="18" viewBox="0 0 36 18" fill="none" xmlns="http://www.w3.org/2000/svg">
<path d="M3.54972 1.63155C3.54972 2.12596 3.37838 2.52148 3.03942 2.82872C2.70047 3.13596 2.26094 3.28782 1.72085 3.28782C1.23663 3.28782 0.830626 3.13243 0.499121 2.8146C0.167615 2.50029 0 2.10477 0 1.63155C0 1.1548 0.17134 0.766333 0.510295 0.459094C0.84925 0.151854 1.27387 0 1.773 0C2.27584 0 2.69674 0.151854 3.0357 0.459094C3.37838 0.766333 3.54972 1.1548 3.54972 1.63155ZM3.22938 17.7175H0.324056V5.32902H3.22566L3.22938 17.7175ZM22.5833 8.94879C22.5833 11.548 21.8868 13.6739 20.4863 15.3231C18.9815 17.1065 16.8919 18 14.2212 18C11.6958 18 9.68815 17.1242 8.19824 15.3761C6.82007 13.7551 6.13099 11.7175 6.13099 9.2525C6.13099 6.73808 6.84615 4.64038 8.28391 2.95586C9.82597 1.1548 11.8858 0.254268 14.467 0.254268C17.0111 0.254268 19.0299 1.11948 20.5161 2.85344C21.8943 4.45321 22.5833 6.48381 22.5833 8.94879ZM19.4918 9.04768C19.4918 7.34903 19.0895 5.88699 18.2812 4.66157C17.35 3.19953 16.0389 2.46851 14.3553 2.46851C12.6158 2.46851 11.2824 3.21719 10.3512 4.71101C9.56151 5.93643 9.16668 7.42319 9.16668 9.17481C9.16668 10.8911 9.56896 12.3602 10.3772 13.5821C11.3271 15.0477 12.6456 15.7787 14.3292 15.7787C16.0687 15.7787 17.4022 15.03 18.3334 13.5362C19.1081 12.3108 19.4918 10.817 19.4918 9.04768ZM36 12.897C36 14.359 35.4636 15.5491 34.3872 16.4638C33.2027 17.4667 31.5563 17.9682 29.4407 17.9682C27.4852 17.9682 25.9207 17.6115 24.7363 16.8982L25.4067 14.6062C26.6806 15.3196 28.0774 15.6763 29.6008 15.6763C30.6959 15.6763 31.5452 15.4432 32.156 14.9735C32.7669 14.5074 33.0686 13.8823 33.0686 13.0983C33.0686 12.4026 32.819 11.8164 32.3162 11.3396C31.8133 10.8629 30.979 10.4214 29.8169 10.0153C26.6434 8.89229 25.0566 7.25368 25.0566 5.09594C25.0566 3.68687 25.6153 2.53208 26.7365 1.62802C27.8576 0.727486 29.3401 0.275456 31.1876 0.275456C32.8377 0.275456 34.2084 0.54738 35.2997 1.09123L34.5771 3.33372C33.5565 2.80753 32.3981 2.54267 31.1094 2.54267C30.0888 2.54267 29.2879 2.77928 28.7181 3.25603C28.2338 3.67981 27.9917 4.19894 27.9917 4.80989C27.9917 5.49147 28.2711 6.04944 28.8261 6.49088C29.3103 6.897 30.1893 7.34197 31.4595 7.81519C33.0202 8.40848 34.1637 9.10771 34.9012 9.90583C35.6312 10.7145 36 11.7069 36 12.897Z" fill="white"/>
</svg>
