<svg width="33" height="38" viewBox="0 0 33 38" fill="none" xmlns="http://www.w3.org/2000/svg">
<path d="M16.7824 35.2765C16.1564 35.4276 14.494 36.356 14.1917 36.4639C13.8895 36.5719 13.0043 37.2843 12.0113 37.5002C11.0182 37.7161 9.26944 37.2411 9.26944 37.2411C9.26944 37.2411 5.23229 35.9026 5.0164 35.9026C4.80051 35.9026 1.71328 35.0174 1.49739 34.8663C1.28149 34.7152 0.784945 34.0459 1.08719 33.571C1.38944 33.096 1.82122 32.7722 1.82122 32.7722C1.82122 32.7722 1.19514 30.8292 1.34626 29.6849C1.49739 28.5407 2.53366 27.9146 3.2461 27.7203C3.98012 27.5045 4.17443 27.2022 4.17443 27.2022C4.17443 27.2022 4.54144 26.7488 4.69257 26.4898C4.84369 26.2307 5.25388 26.0148 5.25388 26.0148L5.36182 25.5398C5.36182 25.5398 4.95163 24.2445 5.14593 23.8343C5.36182 23.4241 6.18221 23.1651 6.44128 22.2799C6.70035 21.3948 6.85147 19.1279 7.62868 17.7678C8.40588 16.4293 8.31953 16.7531 8.88084 16.1702C9.42057 15.5873 10.4353 14.0761 10.6296 13.709C10.8454 13.342 11.5579 12.5217 11.5579 12.0035C11.5579 11.4854 10.9318 7.14598 11.0829 5.74269C11.234 4.3394 11.7522 3.30313 12.3783 2.48274C13.0043 1.66236 13.9327 0.820385 13.9327 0.820385C13.9327 0.820385 14.7099 0 16.0484 0C17.3869 0 19.2004 0.474959 20.0424 1.1874C20.8628 1.92143 21.9638 2.43956 22.4172 3.77808C22.7194 4.81436 23.1296 7.05962 23.216 7.75047C23.3023 8.44132 23.0648 9.56395 23.1944 10.5139C23.3239 11.4422 23.6909 12.0899 23.9716 12.4785C24.2522 12.8671 28.1167 17.6598 28.7859 20.2937C29.4552 22.9276 29.3473 24.3309 29.3473 25.0001C29.3473 25.6694 29.1314 26.5545 29.1314 26.5545C29.1314 26.5545 29.7143 26.792 29.9733 27.2022C30.2324 27.6124 30.1245 29.2963 30.1676 29.5122C30.2324 29.7281 30.5347 30.0951 30.729 30.2463C30.9233 30.3974 31.4846 30.8076 31.8084 30.8508C32.1107 30.8939 32.7152 31.3905 32.8231 31.8654C32.931 32.3404 33.0822 32.8369 32.5209 33.204C31.9595 33.571 29.2177 35.1254 29.045 35.2765C28.8291 35.4492 27.4906 36.6798 27.2747 36.9389C27.0588 37.1979 25.893 37.932 25.4828 37.9751C25.0726 38.0183 23.4534 38.0831 22.3524 37.1548C21.899 36.7662 21.1002 35.9026 20.3878 35.7515C19.6538 35.6003 17.5812 35.2333 17.5812 35.2333C17.5812 35.2333 17.4085 35.1254 16.7824 35.2765Z" fill="black"/>
<path d="M1.82108 34.5614C1.82108 34.5614 4.19588 35.3386 4.77878 35.4897C5.3401 35.6408 9.03183 36.8282 9.37725 36.893C9.74426 36.9362 11.4714 37.4759 12.0975 37.0225C12.7236 36.5476 13.7814 35.317 12.6804 33.4387C11.5362 31.4741 10.8237 31.1071 10.8237 31.1071L9.93856 30.0277L9.31248 28.9914C9.31248 28.9914 8.94547 27.9551 8.64322 27.6529C8.34097 27.3506 8.27621 26.6598 7.499 26.2496C6.95928 25.9689 5.83665 25.9258 5.42645 26.228C5.01626 26.5302 4.17429 27.6745 4.17429 27.6745C4.17429 27.6745 2.98689 27.9983 2.72782 28.1494C2.46875 28.3005 1.84267 28.8187 1.73472 29.1857C1.62678 29.5527 1.51883 30.1788 1.69155 30.7833C1.84267 31.4094 2.01538 32.4241 2.10174 32.5536C2.20969 32.7263 2.16651 32.9638 2.16651 32.9638C2.16651 32.9638 1.25977 33.374 1.25977 33.741C1.25977 34.108 1.56201 34.3887 1.56201 34.3887L1.82108 34.5614Z" fill="#F3C55C"/>
<path d="M22.3977 36.5501C22.3977 36.5501 21.6853 36.0536 21.7284 34.8014C21.7716 33.1606 22.3329 32.5345 22.3329 31.8869C22.3329 31.2392 22.225 30.462 22.225 30.462C22.225 30.462 22.0523 28.2167 22.1386 27.5691C22.225 26.9214 22.5272 26.3169 22.9806 26.2521C23.434 26.1874 24.0817 26.6623 24.1896 26.835C24.4703 27.3532 24.9236 28.2383 24.9236 28.2383C24.9236 28.2383 25.4634 29.1666 26.0463 29.1235C26.6292 29.0803 27.7302 27.3747 28.3347 27.0077C28.7233 26.7703 29.3062 26.7918 29.4789 26.8998C29.6516 27.0077 29.9971 27.3747 30.0402 27.8065C30.0834 28.2167 29.8675 29.1235 29.9755 29.5768C30.0834 30.0302 30.5584 30.5483 30.947 30.7858C31.3356 31.0233 32.3287 31.4119 32.5014 31.6494C32.6741 31.8869 32.89 32.4482 32.5446 32.7936C32.1991 33.139 31.3788 33.5492 31.3788 33.5492L30.1698 34.3048C30.1698 34.3048 29.1335 34.8662 28.9176 35.0389C28.7017 35.2116 27.428 36.4206 27.1257 36.658C26.8235 36.8955 26.478 37.3489 26.0031 37.5C25.6361 37.608 24.7077 37.7807 24.276 37.608C23.8226 37.4352 23.2397 37.1762 23.2397 37.1762L22.3977 36.5501Z" fill="#F3C55C"/>
<path d="M12.9837 12.1535C12.9837 12.1535 13.3938 12.283 13.7393 12.5637C14.0847 12.8443 14.9051 13.492 15.7471 13.5352C16.5674 13.5783 17.0856 13.4056 17.5389 12.9523C17.9923 12.4989 18.4025 12.0455 18.6184 11.9592C18.8343 11.8512 19.2661 11.6785 19.2661 11.6785L19.9569 11.1172C19.9569 11.1172 20.0217 11.9376 20.2592 12.4557C20.4966 12.9738 21.1875 13.9022 21.3602 14.701C21.5329 15.4998 21.7056 16.4929 22.0942 17.0542C22.4828 17.6155 23.6918 19.0188 23.9509 19.9903C24.2315 20.9618 24.577 22.6242 24.3395 23.6388C24.102 24.6751 23.9293 26.2943 23.9293 26.2943C23.9293 26.2943 23.4543 25.992 23.1305 25.992C22.8283 25.992 22.6555 26.0568 22.3749 26.2727C22.0295 26.5102 21.792 27.309 21.792 27.7192C21.792 28.1294 21.792 30.4826 21.792 30.4826C21.792 30.4826 20.583 31.4757 20.3671 31.7347C20.1512 31.9722 18.2946 33.5698 17.8196 33.7641C17.3446 33.98 15.5743 34.5197 14.6028 34.0663C13.6313 33.613 13.3723 33.5698 13.2643 33.4187C13.1564 33.2891 11.7099 31.4973 11.7099 31.4973L11.5372 31.303C11.5372 31.303 12.5951 31.4325 12.8973 31.0007C13.1995 30.5473 13.2643 30.0724 13.1132 29.727C12.8973 29.2088 12.6814 28.8634 12.3576 28.518C11.6451 27.7839 10.1123 26.9636 9.89642 26.7477C9.68053 26.5318 8.47154 25.3228 8.38518 24.8046C8.27724 24.2865 8.08294 23.315 8.44995 22.3651C8.83856 21.3936 9.83165 20.0551 10.1123 19.3642C10.393 18.6734 10.5873 17.9825 10.5873 17.5075C10.5873 17.0326 10.5441 16.5792 10.8247 16.0611C11.1054 15.5429 11.4508 15.2623 11.7315 14.8953C12.0121 14.5067 12.5519 13.9885 12.7678 13.4488C12.9837 12.8875 12.9837 12.3478 12.9837 12.3478V12.1535V12.1535Z" fill="white"/>
<path d="M14.9691 7.66711C14.8611 8.63861 14.0407 9.43741 13.3067 9.35105C12.5727 9.2647 12.1409 8.57385 12.2489 7.60234C12.3568 6.63083 13.2204 5.76727 13.9544 5.85363C14.6884 5.93998 15.077 6.6956 14.9691 7.66711Z" fill="white"/>
<path d="M20.1509 7.49167C20.0861 8.09617 19.5032 8.98132 18.9635 9.26198C18.6613 9.4131 18.2295 8.98132 17.8841 8.76543C17.1068 8.26888 16.6319 8.33365 16.7398 7.36214C16.8478 6.39063 17.7329 5.54866 18.6613 5.63501C19.5896 5.72137 20.2588 6.52017 20.1509 7.49167Z" fill="white"/>
<path d="M14.8389 7.96781C14.8389 8.52913 14.4287 8.98249 13.9321 8.98249C13.4356 8.98249 13.0254 8.52913 13.0254 7.96781C13.0254 7.40649 13.4356 6.95312 13.9321 6.95312C14.4503 6.95312 14.8389 7.40649 14.8389 7.96781Z" fill="black"/>
<path d="M19.1142 7.83695C19.1142 8.39827 18.704 8.85164 18.2074 8.85164C18.0131 8.85164 17.8404 8.78687 17.7109 8.67893C17.4734 8.48462 17.3223 8.18238 17.3223 7.83695C17.3223 7.27564 17.7325 6.82227 18.229 6.82227C18.704 6.82227 19.1142 7.27564 19.1142 7.83695Z" fill="black"/>
<path d="M14.409 7.42529C14.409 7.59801 14.2794 7.72754 14.1283 7.72754C13.9772 7.72754 13.8477 7.59801 13.8477 7.42529C13.8477 7.25258 13.9772 7.12305 14.1283 7.12305C14.2794 7.14464 14.409 7.27417 14.409 7.42529Z" fill="white"/>
<path d="M18.9207 7.7085C18.9207 7.88121 18.7912 8.01074 18.64 8.01074C18.4889 8.01074 18.3594 7.88121 18.3594 7.7085C18.3594 7.53578 18.4889 7.40625 18.64 7.40625C18.7912 7.40625 18.9207 7.53578 18.9207 7.7085Z" fill="white"/>
<path d="M19.8479 9.97397L19.7615 10.5785C19.7615 10.5785 19.3945 10.7944 19.3298 10.8375C19.2434 10.8807 18.7037 11.0102 18.5526 11.0102C18.4014 11.0102 17.9912 11.2477 17.6458 11.2909C17.3004 11.3341 16.9766 11.6795 16.8686 11.8306C16.7607 11.9818 16.3073 12.2408 16.1778 12.3056C16.0482 12.3488 15.638 12.5215 15.4221 12.4783C15.2062 12.4567 14.7961 12.3272 14.7313 12.2408C14.6449 12.1545 13.9973 12.0681 13.9973 12.0681L13.5223 11.809L13.1553 11.5068L12.8962 11.2693L12.7235 11.0966L12.961 11.183C12.961 11.183 13.3928 11.5716 13.6087 11.7011C13.8245 11.8306 14.2779 11.8306 14.429 11.8738C14.5802 11.917 14.9256 12.284 15.2278 12.284C15.5301 12.284 16.0482 12.1761 16.3073 12.0249C16.5664 11.8738 17.0629 11.3341 17.3436 11.1614C17.6242 11.0102 17.9481 10.8159 18.2287 10.8159C18.5094 10.8159 18.6605 10.8375 18.9843 10.7944C19.3298 10.7512 19.5025 10.5785 19.5456 10.4273C19.5888 10.2762 19.5888 9.90921 19.5888 9.90921L18.898 9.56378C18.898 9.56378 18.3367 9.30471 18.2071 9.17518C18.0776 9.04564 17.4515 8.5491 17.214 8.48433C16.9766 8.39797 16.8038 8.22526 16.3936 8.22526C15.9835 8.22526 15.6164 8.07414 15.3142 8.24685C15.0119 8.41956 14.537 8.76499 14.4506 8.89452C14.3643 9.02406 13.9325 9.23995 13.7814 9.26154C13.6302 9.28312 13.2848 9.49902 13.1553 9.56378C13.0258 9.65014 12.7235 9.77967 12.5508 10.1683C12.3997 10.5569 12.3349 11.1182 12.5508 11.4204C12.7667 11.7011 13.4144 12.1545 13.695 12.2192C13.9757 12.3056 14.4506 12.8237 14.6018 12.8885C14.7529 12.9749 15.2494 13.2555 15.746 13.2987C16.2425 13.3419 16.6311 13.4066 17.0197 13.1476C17.4083 12.8885 17.7538 12.4567 18.056 12.2192C18.3583 11.9818 18.7037 11.6147 18.9412 11.5716C19.1786 11.5284 19.4593 11.3557 19.5672 11.2909C19.6752 11.2046 20.0422 10.9239 20.0422 10.6864C20.0422 10.4489 20.0638 9.99556 20.0638 9.99556L19.8263 9.88762" fill="#F3C55C"/>
<path d="M18.4661 9.4322C18.4661 9.4322 18.1207 9.56173 18.0343 9.51855C17.9264 9.47538 16.8469 8.91406 16.5662 8.91406C16.2856 8.91406 15.0118 9.12995 14.6664 9.34584C14.321 9.58332 13.7165 9.97193 13.6085 10.2742C13.5006 10.5764 13.587 11.0298 13.9108 11.1809C14.2562 11.332 14.6448 11.4832 14.8607 11.807C15.0982 12.1092 15.0982 12.3035 15.3788 12.3035C15.6595 12.3035 15.9833 12.1956 16.2424 12.0229C16.5015 11.8502 16.998 11.44 17.3003 11.2025C17.6025 10.965 17.8184 10.8571 18.1638 10.8571C18.5093 10.8571 19.049 10.8571 19.2649 10.7491C19.4808 10.6412 19.5671 10.598 19.5671 10.4469C19.5671 10.2958 19.7398 10.0583 19.6103 9.92875C19.4808 9.79921 18.9626 9.6265 18.8115 9.54015C18.6604 9.45379 18.4661 9.4322 18.4661 9.4322Z" fill="#F8D281"/>
<path d="M14.4941 12.2651C14.4941 12.2651 15.3577 12.956 15.6384 12.956C15.919 12.956 16.2644 13.0855 16.394 13.0855C16.4587 13.0855 16.286 13.1719 16.8042 13.0208L16.761 13.1935C16.761 13.1935 17.3007 12.9992 17.4087 12.7833C17.5814 12.4594 18.0779 12.2436 18.1427 12.1572C18.2506 11.9413 18.5961 11.7254 18.8335 11.5959C19.071 11.4663 19.179 11.4663 19.3949 11.38C19.546 11.3152 19.9993 10.7971 19.9993 10.7971L19.6107 10.7539C19.6107 10.7539 18.6824 11.013 18.5961 11.013C18.5097 11.013 17.97 11.272 17.7109 11.272C17.3655 11.272 16.9337 11.7686 16.8473 11.8765C16.761 11.9845 16.3076 12.2651 16.3076 12.2651L15.6384 12.5026L15.0555 12.3947L14.4941 12.2651Z" fill="#F8D281"/>
</svg>
